<svg version="1.1" id="Layer_1" xmlns="http://www.w3.org/2000/svg" xmlns:xlink="http://www.w3.org/1999/xlink" x="0px" y="0px"
	 width="100%" viewBox="0 0 1649 1391" enable-background="new 0 0 1649 1391" xml:space="preserve">
<path fill="#FFFFFF" opacity="1.000000" stroke="none" 
	d="
M665.000000,1392.000000 
	C647.640808,1392.000000 630.281677,1392.000000 612.461304,1391.531372 
	C612.000061,1366.801758 612.000061,1342.540771 612.000061,1317.791016 
	C553.985107,1317.791016 496.595276,1317.791016 439.393677,1317.791016 
	C439.393677,1296.569336 439.393677,1275.843628 439.393677,1254.808105 
	C491.391693,1254.808105 542.996521,1254.808105 594.707703,1254.808105 
	C594.707703,1232.431763 594.707703,1210.373657 594.707703,1187.826416 
	C542.692810,1187.826416 490.968506,1187.826416 439.374817,1187.826416 
	C439.374817,1170.940552 439.374817,1154.548096 439.374817,1137.853271 
	C495.354462,1137.853271 550.959900,1137.853271 606.729004,1137.853271 
	C606.729004,1114.484497 606.729004,1091.426147 606.729004,1068.305908 
	C517.071533,1068.305908 427.685730,1068.305908 338.000000,1068.305908 
	C338.000000,1176.407715 338.000000,1284.203857 338.000000,1392.000000 
	C320.640839,1392.000000 303.281677,1392.000000 285.461243,1391.531372 
	C285.000000,1366.802368 285.000000,1342.541870 285.000000,1317.793457 
	C227.320404,1317.793457 170.264771,1317.793457 113.391945,1317.793457 
	C113.391945,1296.572754 113.391945,1275.847412 113.391945,1254.812256 
	C165.053650,1254.812256 216.324341,1254.812256 267.706635,1254.812256 
	C267.706635,1232.437256 267.706635,1210.380127 267.706635,1187.830811 
	C216.025436,1187.830811 164.635727,1187.830811 113.373970,1187.830811 
	C113.373970,1170.942261 113.373970,1154.549927 113.373970,1137.848633 
	C169.017181,1137.848633 224.287445,1137.848633 279.724609,1137.848633 
	C279.724609,1114.474487 279.724609,1091.417725 279.724609,1068.308228 
	C190.397751,1068.308228 101.346596,1068.308228 12.000000,1068.308228 
	C12.000000,1176.410767 12.000000,1284.205444 12.000000,1392.000000 
	C8.336368,1392.000000 4.672736,1392.000000 1.004552,1392.000000 
	C1.000000,1225.640869 1.000000,1059.281616 1.468657,892.461792 
	C123.241882,892.003967 244.546448,892.006836 365.993225,892.321533 
	C368.862885,895.711792 371.423309,898.960449 374.352173,901.833496 
	C380.602844,907.964905 386.901947,914.061829 393.441650,919.880127 
	C402.970642,928.357910 412.631073,936.694824 422.409943,944.883362 
	C442.718323,961.889099 465.068848,975.947083 488.237701,988.568726 
	C515.033752,1003.166382 543.054932,1015.166565 572.336914,1023.935364 
	C592.358276,1029.930908 612.519043,1035.495239 633.355957,1037.999023 
	C650.534851,1040.063110 667.692749,1042.445435 684.928528,1043.839355 
	C695.664246,1044.707764 706.529358,1044.126587 717.332764,1043.960205 
	C725.926697,1043.828003 734.568054,1043.828369 743.095154,1042.907349 
	C761.722290,1040.895264 780.343506,1038.684082 798.861328,1035.860474 
	C809.241882,1034.277466 819.411255,1031.309326 830.880493,1028.690063 
	C820.271118,1019.040833 810.594116,1010.348816 801.039734,1001.524109 
	C786.630554,988.215332 772.265930,974.857666 757.963562,961.434326 
	C750.244019,954.189209 742.722473,946.733459 735.055359,939.431885 
	C730.402405,935.000793 725.646423,930.677734 720.929443,926.314087 
	C708.622620,914.929199 696.311890,903.548767 684.466309,892.095337 
	C707.559937,892.013550 730.189880,892.002808 752.973572,892.313477 
	C766.960083,903.469116 780.839783,914.244263 794.612305,925.154663 
	C808.163574,935.889893 821.559631,946.821106 835.107788,957.560364 
	C853.859314,972.424255 872.720703,987.149719 891.456482,1002.033325 
	C894.703369,1004.612732 897.548767,1005.344604 901.497925,1003.234253 
	C916.405701,995.267761 931.813843,988.187927 946.415771,979.710144 
	C971.875244,964.928467 995.551025,947.460388 1017.458130,927.828308 
	C1029.998169,916.590637 1041.310303,903.982788 1053.632812,891.986328 
	C1089.314697,891.980835 1124.539185,891.980835 1160.773926,891.980835 
	C1110.059692,964.580872 1046.443359,1021.043762 969.489502,1063.236572 
	C978.982544,1070.782837 987.910706,1077.916260 996.878418,1084.999878 
	C1008.793091,1094.411377 1020.737976,1103.784424 1032.670654,1113.172974 
	C1044.472046,1122.458252 1056.285645,1131.728027 1068.073486,1141.030640 
	C1080.000244,1150.442871 1091.968994,1159.804688 1103.761230,1169.383179 
	C1106.288452,1171.435791 1107.958008,1172.002197 1110.801514,1169.826904 
	C1128.271851,1156.461426 1146.175049,1143.646362 1163.368042,1129.938110 
	C1176.714233,1119.297119 1189.729248,1108.132080 1201.993652,1096.271729 
	C1216.037476,1082.690674 1229.557861,1068.494873 1242.445068,1053.810791 
	C1256.354492,1037.961914 1269.551758,1021.461060 1282.554565,1004.849121 
	C1305.767212,975.193420 1325.155762,943.060425 1342.624146,909.755188 
	C1347.888062,899.719055 1352.742188,889.468018 1358.030762,878.818481 
	C909.691467,878.818481 462.078491,878.818481 14.268406,878.818481 
	C14.268406,846.160095 14.268406,813.768433 14.268406,781.075500 
	C474.481415,781.075500 934.426575,781.075500 1395.000000,781.075500 
	C1399.019043,765.115845 1403.415161,749.377014 1406.875488,733.435059 
	C1410.346313,717.445618 1412.883545,701.253540 1415.941406,684.541138 
	C1361.168945,676.377197 1306.796997,668.273010 1252.812622,660.226501 
	C1249.696655,675.964050 1247.300537,691.597656 1243.404297,706.847900 
	C1238.556274,725.823425 1232.417847,744.467468 1226.963623,763.291443 
	C1225.946167,766.802734 1224.273926,768.127686 1220.410400,768.100464 
	C1193.412109,767.910156 1166.411743,768.008789 1139.412109,767.974670 
	C1137.972046,767.972839 1136.532471,767.607117 1135.061768,767.006897 
	C1151.483521,728.759338 1162.765747,689.441711 1168.602173,648.358337 
	C1167.729858,647.959045 1166.749756,647.225647 1165.684082,647.067139 
	C1156.181885,645.653748 1146.664429,644.342834 1137.151733,642.999695 
	C1127.315063,641.610840 1117.471313,640.270020 1107.644287,638.815796 
	C1097.175049,637.266724 1086.727051,635.575256 1076.260254,634.009094 
	C1066.273804,632.514893 1056.267334,631.153625 1046.283813,629.640137 
	C1034.222778,627.811707 1022.187500,625.811768 1010.120789,624.022400 
	C999.952515,622.514526 989.738770,621.311340 979.574890,619.776123 
	C965.260315,617.614014 950.989319,615.161499 936.669922,613.033630 
	C922.162537,610.877686 907.608154,609.039734 893.094421,606.924866 
	C880.208984,605.047241 867.355103,602.954590 854.479797,601.006104 
	C844.821655,599.544556 835.146362,598.196716 825.488525,596.733154 
	C815.345459,595.195984 805.224487,593.510620 795.074707,592.020264 
	C784.914734,590.528320 774.714905,589.304260 764.561646,587.770325 
	C750.245972,585.607483 735.971313,583.172852 721.652588,581.031799 
	C709.401367,579.199768 697.099121,577.710815 684.844727,575.898621 
	C672.282227,574.040833 659.762817,571.892700 647.201965,570.023560 
	C635.122070,568.226074 623.001709,566.701599 610.920410,564.913269 
	C598.202393,563.030640 585.504883,561.007141 572.807922,558.985413 
	C566.901550,558.044922 561.017639,556.963196 555.070679,555.483276 
	C555.031189,548.713074 555.044556,542.404968 555.479126,536.072144 
	C556.643372,536.356812 557.370056,536.886658 558.131714,536.942871 
	C572.395752,537.995667 586.660156,539.047729 600.932251,539.983154 
	C612.435730,540.737183 623.950195,541.321228 635.458069,542.010376 
	C640.375610,542.304810 645.294556,542.605225 650.202576,543.023010 
	C665.415161,544.317932 680.613159,545.797607 695.835632,546.959290 
	C707.327881,547.836365 718.849854,548.320435 730.356750,549.009338 
	C735.440613,549.313599 740.525391,549.627686 745.600525,550.048584 
	C761.133545,551.336914 776.661255,552.689392 792.192749,553.996216 
	C800.365295,554.683899 808.537842,555.378113 816.716797,555.982300 
	C835.234802,557.350586 853.757874,558.650024 872.276794,560.006042 
	C885.559265,560.978638 898.837402,562.009155 912.119019,562.993103 
	C930.302307,564.340210 948.481995,565.740784 966.672852,566.977234 
	C978.515564,567.782166 990.376343,568.319092 1002.227051,569.009338 
	C1007.312927,569.305481 1012.400391,569.609436 1017.475830,570.042847 
	C1032.509155,571.326599 1047.526489,572.812439 1062.570068,573.956909 
	C1074.230469,574.844055 1085.921875,575.320496 1097.597412,576.012756 
	C1102.515991,576.304321 1107.434814,576.617310 1112.344238,577.031067 
	C1127.708862,578.326050 1143.066162,579.707642 1158.432617,580.980408 
	C1163.125000,581.369080 1167.837402,581.514771 1173.744751,581.837463 
	C1172.834717,567.606323 1172.274048,553.630859 1170.955200,539.727234 
	C1169.725098,526.760071 1168.516602,513.693604 1165.817261,500.985535 
	C1161.557251,480.931396 1156.726562,460.943054 1150.921753,441.285889 
	C1142.845459,413.937042 1131.229492,387.951660 1117.449829,362.974365 
	C1112.598999,354.181610 1108.077637,345.111298 1102.313843,336.937775 
	C1090.267944,319.855743 1078.140991,302.751801 1064.825928,286.667999 
	C1053.342773,272.797119 1040.666504,259.801727 1027.596191,247.389511 
	C1015.150208,235.570175 1001.777954,224.672211 988.334900,213.969635 
	C968.770813,198.393707 947.566406,185.190826 925.309937,173.854797 
	C910.160645,166.138702 894.429138,159.569611 879.003235,152.390366 
	C874.842285,150.453873 871.348511,151.361771 867.663391,153.715424 
	C858.104797,159.820587 848.438049,165.759521 838.747681,171.654907 
	C821.083069,182.401718 803.341064,193.021423 785.686035,203.783890 
	C770.066101,213.305817 754.555908,223.007797 738.932678,232.524384 
	C721.247559,243.296921 703.454407,253.892105 685.775635,264.675018 
	C670.021606,274.284027 654.386108,284.087067 638.650146,293.725800 
	C620.864441,304.620087 603.020935,315.419861 585.210266,326.273346 
	C568.074768,336.715332 550.955322,347.183350 533.817627,357.621552 
	C516.007690,368.469116 498.182068,379.291077 480.367371,390.130798 
	C459.907837,402.579834 439.422150,414.986298 419.005310,427.505066 
	C402.611572,437.557068 386.303619,447.748932 369.497101,457.935059 
	C364.357697,457.938446 359.678802,457.885529 355.137878,457.524323 
	C358.543549,454.808289 361.815674,452.406464 365.078186,449.991669 
	C384.905975,435.316040 404.763184,420.679871 424.548248,405.946808 
	C440.962524,393.723846 457.255585,381.338196 473.667511,369.112030 
	C489.914948,357.008484 506.279724,345.062439 522.527100,332.958862 
	C538.939880,320.732086 555.235962,308.348755 571.649109,296.122528 
	C587.899170,284.017792 604.262817,272.065552 620.519409,259.969574 
	C638.352112,246.700912 656.100220,233.318695 673.920349,220.033112 
	C692.775452,205.975952 711.673035,191.975708 730.550110,177.947998 
	C749.833557,163.618378 769.129456,149.305405 788.378296,134.929489 
	C790.808411,133.114563 792.986206,130.961899 796.042725,128.302994 
	C786.324585,127.050201 778.068420,125.888145 769.787598,124.941444 
	C757.590271,123.546989 745.394104,121.467804 733.163696,121.195168 
	C714.589783,120.781128 695.982056,121.508469 677.398254,122.067795 
	C668.365540,122.339661 659.261902,122.735710 650.353455,124.123016 
	C633.852905,126.692642 617.310364,129.349380 601.076294,133.197388 
	C570.197083,140.516724 540.266052,150.904099 511.725494,164.839874 
	C496.455902,172.295670 481.454132,180.412811 466.863464,189.122650 
	C437.030701,206.931198 410.104889,228.648529 384.964966,252.558273 
	C377.525635,259.633575 370.580078,267.249359 363.682983,274.866241 
	C358.753082,280.310669 354.294556,286.180908 349.601807,291.841339 
	C345.154327,297.205933 340.675812,302.544800 336.120514,307.440918 
	C336.030090,262.867584 336.030090,218.748352 336.030090,174.151688 
	C334.052643,175.099274 332.410034,175.758087 330.892487,176.633621 
	C316.834106,184.744598 302.803253,192.903290 288.752441,201.027435 
	C275.121613,208.908722 261.458954,216.735077 247.842972,224.641937 
	C233.942307,232.714096 220.206146,241.081772 206.123184,248.820023 
	C202.164078,250.995483 200.888748,253.258102 200.897339,257.604401 
	C201.025467,322.419922 200.985901,387.235809 200.985901,452.051605 
	C200.985901,453.972351 200.985901,455.893066 200.985901,458.293091 
	C156.226608,458.293091 112.174583,458.293091 68.247284,458.293091 
	C68.247284,498.384094 68.247284,537.984497 68.247284,578.074707 
	C112.543121,578.074707 156.594315,578.074707 200.678162,578.074707 
	C200.678162,641.614197 200.678162,704.661682 200.678162,768.000000 
	C133.913895,768.000000 67.456947,768.000000 1.000000,768.000000 
	C1.000000,512.390686 1.000000,256.781342 1.000000,1.000000 
	C373.025818,1.000000 745.051697,1.000000 1117.420166,1.336801 
	C1112.899292,4.574244 1108.013672,7.438294 1103.176392,10.382230 
	C1086.866821,20.308285 1070.576050,30.265604 1054.274902,40.205536 
	C1035.469604,51.672508 1016.660034,63.132866 997.853271,74.597626 
	C985.571838,82.084496 973.291992,89.574081 961.778870,96.594498 
	C1151.821899,205.396957 1252.312744,367.941956 1259.259155,587.796814 
	C1260.707153,588.096436 1262.897217,588.822327 1265.124634,588.965027 
	C1276.973877,589.724060 1288.833374,590.322693 1300.687622,591.006958 
	C1305.950684,591.310730 1311.217651,591.593750 1316.469238,592.044556 
	C1331.328003,593.320007 1346.168579,594.824951 1361.037842,595.955444 
	C1372.874390,596.855469 1384.749878,597.234436 1396.594116,598.046997 
	C1402.788086,598.471924 1408.945068,599.411011 1415.132812,599.959045 
	C1417.692627,600.185852 1420.289185,599.996704 1423.000366,599.996704 
	C1423.000366,597.408752 1423.048340,595.580872 1422.993164,593.756165 
	C1422.337646,572.068542 1421.777344,550.377136 1420.945190,528.696289 
	C1420.617554,520.160034 1420.037598,511.599579 1418.924683,503.135345 
	C1417.251465,490.408051 1415.185425,477.724579 1412.961670,465.079559 
	C1410.372803,450.358002 1408.355469,435.447510 1404.447021,421.065552 
	C1397.257690,394.610077 1389.652832,368.210327 1380.726440,342.302277 
	C1373.623413,321.685944 1364.675171,301.667542 1355.813599,281.708923 
	C1350.334961,269.369598 1343.836792,257.439575 1337.167358,245.682663 
	C1327.369385,228.410858 1317.535522,211.117599 1306.758301,194.453384 
	C1292.501221,172.408325 1277.180420,151.059036 1259.793579,131.304855 
	C1246.555664,116.264526 1233.811890,100.719414 1219.715942,86.523033 
	C1204.176636,70.872948 1187.586792,56.229969 1170.989014,41.679585 
	C1160.126709,32.157284 1148.438965,23.576662 1137.117310,14.578714 
	C1131.415771,10.047319 1125.706055,5.525918 1120.000000,0.999983 
	C1296.607300,1.000000 1473.214478,1.000000 1650.000000,1.000000 
	C1650.000000,243.025803 1650.000000,485.051666 1649.584961,727.536865 
	C1646.795410,727.503235 1644.422485,727.001099 1642.045654,726.518921 
	C1623.101929,722.676025 1604.157593,718.836365 1585.213135,714.996643 
	C1566.585449,711.221191 1547.954712,707.460571 1529.330444,703.668518 
	C1510.419800,699.817993 1491.515259,695.936829 1472.767578,692.101746 
	C1467.707153,721.363647 1462.671265,750.483826 1457.539551,780.157593 
	C1501.787964,780.157593 1546.329468,780.157593 1590.746826,780.157593 
	C1590.746826,813.049866 1590.746826,845.322815 1590.746826,878.000000 
	C1588.704956,878.000000 1586.910889,878.000000 1585.116821,878.000000 
	C1533.287231,878.000000 1481.457764,877.978455 1429.628418,878.092773 
	C1427.867920,878.096619 1425.115601,878.991028 1424.500000,880.273987 
	C1413.824951,902.518188 1404.100586,925.245911 1392.733032,947.122070 
	C1383.012573,965.828613 1372.130005,984.021423 1360.553711,1001.648193 
	C1348.955322,1019.308716 1336.395996,1036.410400 1323.273804,1052.977783 
	C1309.832153,1069.948486 1295.912476,1086.663940 1280.895264,1102.230225 
	C1264.009521,1119.733398 1245.844360,1136.025757 1227.877808,1152.453369 
	C1218.219971,1161.283936 1208.108154,1169.685669 1197.669312,1177.577271 
	C1183.876709,1188.004395 1169.562622,1197.741577 1155.220093,1207.955200 
	C1159.458984,1211.457520 1163.673462,1215.089966 1168.043213,1218.524658 
	C1189.599243,1235.467285 1211.189697,1252.366333 1232.781006,1269.263916 
	C1254.112915,1285.958374 1275.483398,1302.604126 1296.777710,1319.346558 
	C1300.119263,1321.973999 1302.516968,1321.870728 1305.838501,1318.853882 
	C1313.964844,1311.473145 1322.668335,1304.733032 1330.947998,1297.515503 
	C1345.334351,1284.974854 1360.054810,1272.764648 1373.776855,1259.526245 
	C1400.698364,1233.553589 1426.963501,1206.907104 1450.642090,1177.856201 
	C1459.733154,1166.702637 1469.423584,1155.980835 1477.806274,1144.318726 
	C1493.641968,1122.287842 1509.108765,1099.968262 1523.993652,1077.286255 
	C1533.970215,1062.083496 1543.147461,1046.303101 1551.825073,1030.315918 
	C1560.507935,1014.319275 1568.290527,997.823364 1576.152832,981.395569 
	C1581.685059,969.835999 1587.316162,958.258423 1591.800171,946.276184 
	C1601.214233,921.119385 1610.817627,895.969177 1618.625977,870.294067 
	C1626.208618,845.360779 1632.030273,819.863281 1637.882568,794.442627 
	C1641.637207,778.133484 1644.020630,761.509827 1647.076050,745.037842 
	C1647.947510,740.339417 1649.019775,735.678223 1650.000000,731.000000 
	C1650.000000,951.269592 1650.000000,1171.539185 1650.000000,1392.000000 
	C1383.307495,1392.000000 1116.614990,1392.000000 849.653748,1391.614746 
	C865.601013,1389.155151 881.911743,1387.634766 898.012024,1384.883179 
	C925.787598,1380.135742 944.729614,1363.139038 956.563049,1338.498413 
	C965.402039,1320.092773 967.104980,1300.236816 962.977966,1280.095337 
	C960.598999,1268.484985 956.304504,1257.564331 948.755066,1248.383545 
	C935.951782,1232.813599 918.565918,1224.684082 899.263855,1219.536011 
	C899.902161,1219.188477 900.304749,1218.940430 900.731262,1218.744385 
	C901.315918,1218.475586 901.919617,1218.248535 902.513611,1217.999878 
	C913.943665,1213.217651 924.890503,1207.381958 932.672424,1197.578735 
	C946.110718,1180.649902 951.708435,1161.394653 949.181458,1139.535278 
	C947.439026,1124.462646 942.403198,1111.039429 932.880981,1099.523560 
	C915.248657,1078.199463 891.364441,1068.589233 864.606262,1068.259033 
	C799.951416,1067.461060 735.280029,1068.000000 670.615356,1068.000000 
	C668.846130,1068.000000 667.076843,1068.000000 665.000000,1068.000000 
	C665.000000,1176.396973 665.000000,1284.198486 665.000000,1392.000000 
M737.000000,844.498108 
	C737.000000,830.411133 737.000000,816.324097 737.000000,802.362610 
	C730.600403,802.362610 724.870789,802.362610 718.839844,802.362610 
	C718.839844,811.949646 718.839844,821.177551 718.839844,831.554138 
	C712.241333,822.008606 706.299255,813.384155 700.312744,804.790710 
	C699.611816,803.784546 698.698547,802.194580 697.828369,802.156982 
	C692.258179,801.916443 686.672485,802.034363 681.251831,802.034363 
	C681.251831,822.057556 681.251831,841.326233 681.251831,860.706665 
	C687.230530,860.706665 692.953979,860.706665 699.248413,860.706665 
	C699.248413,850.828491 699.248413,841.232910 699.248413,830.974548 
	C705.663940,840.462158 711.542419,849.232971 717.533081,857.926514 
	C718.371155,859.142639 719.710510,860.781311 720.901428,860.853943 
	C726.149902,861.174072 731.428955,860.992188 737.000000,860.992188 
	C737.000000,855.438416 737.000000,850.467468 737.000000,844.498108 
M1157.427002,827.962402 
	C1162.522705,823.883728 1162.978394,818.127686 1161.669312,812.641479 
	C1160.394165,807.297607 1156.425171,803.376831 1150.539429,803.062012 
	C1139.488281,802.471008 1128.413330,802.319519 1117.347656,802.008423 
	C1115.273804,801.950073 1113.197144,802.000000 1111.224609,802.000000 
	C1111.224609,822.031860 1111.224609,841.285278 1111.224609,860.000671 
	C1123.979370,860.000671 1136.501221,860.031555 1149.022705,859.989868 
	C1157.440430,859.961853 1163.546387,854.389282 1164.789917,846.731140 
	C1165.324951,843.435730 1164.499390,839.356750 1162.867432,836.427368 
	C1161.174683,833.388916 1157.758301,831.310669 1155.229980,828.938293 
	C1155.302734,828.894592 1155.998413,828.477112 1157.427002,827.962402 
M803.668396,818.782898 
	C803.965637,818.274414 804.583923,817.714600 804.512085,817.265198 
	C803.426819,810.479614 796.177551,802.898438 789.567261,802.085754 
	C784.183167,801.423889 778.693054,800.788391 773.312561,801.129456 
	C765.277161,801.638794 758.035706,804.018005 752.457214,810.799988 
	C745.880371,818.795776 745.169373,828.000732 746.197449,837.304932 
	C747.274475,847.052795 751.835449,855.448730 761.670105,859.110840 
	C776.620361,864.677917 790.787048,862.211243 803.905273,853.420227 
	C804.948486,852.721130 805.880554,851.034119 805.911804,849.782288 
	C806.098022,842.334473 806.003906,834.879578 806.003906,827.274780 
	C796.143555,827.274780 786.750244,827.274780 777.316284,827.274780 
	C777.316284,831.617188 777.316284,835.677551 777.316284,840.181885 
	C781.372925,840.181885 785.117615,840.181885 789.264465,840.181885 
	C788.894043,842.076660 789.107239,844.149536 788.269470,844.745850 
	C783.668518,848.020691 774.197205,849.441284 769.491760,845.320679 
	C763.509155,840.081543 763.744202,824.208130 768.161804,818.619873 
	C771.222656,814.747864 779.885620,813.143982 782.838867,816.693970 
	C786.521606,821.120789 790.184387,821.692627 795.171204,820.081787 
	C797.608032,819.294617 800.305908,819.315735 803.668396,818.782898 
M251.999878,808.583801 
	C251.999878,806.486084 251.999878,804.388367 251.999878,802.339355 
	C245.663300,802.339355 239.941376,802.339355 234.001312,802.339355 
	C234.001312,815.639771 233.636597,828.615967 234.127396,841.559753 
	C234.463959,850.435791 240.070160,857.646240 248.598465,859.844238 
	C254.381256,861.334656 260.632751,862.302307 266.525757,861.790344 
	C277.659119,860.823059 286.902100,857.291931 289.152313,843.137146 
	C290.542664,834.391235 289.827057,825.305359 289.985107,816.370850 
	C290.069061,811.625305 290.000000,806.877075 290.000000,802.232788 
	C283.309845,802.232788 277.373993,802.232788 270.999908,802.232788 
	C270.999908,814.396362 270.919464,826.333191 271.041901,838.267822 
	C271.087097,842.670166 269.211029,845.811096 265.133392,846.778198 
	C260.828186,847.799377 256.140503,847.343811 253.774200,842.987732 
	C252.386780,840.433655 252.154831,837.052979 252.074127,834.026306 
	C251.856888,825.878540 251.999878,817.721191 251.999878,808.583801 
M1250.000000,829.429565 
	C1250.000000,820.352295 1250.000000,811.274963 1250.000000,802.382812 
	C1243.572998,802.382812 1237.848755,802.382812 1232.000122,802.382812 
	C1232.000122,815.573547 1231.460083,828.412415 1232.182861,841.179810 
	C1232.697266,850.266602 1236.808228,856.723145 1246.245117,859.841919 
	C1254.534424,862.581421 1263.297241,863.136902 1271.836182,860.578369 
	C1279.876587,858.169373 1286.290039,853.039856 1286.796143,844.428833 
	C1287.616211,830.474731 1287.016968,816.437195 1287.016968,802.275513 
	C1281.462036,802.275513 1275.410034,802.275513 1269.000000,802.275513 
	C1269.000000,814.162292 1269.007080,825.777283 1268.996948,837.392273 
	C1268.991699,843.486389 1266.547485,846.620789 1261.550903,846.997681 
	C1254.897217,847.499573 1252.126221,845.506836 1250.997925,839.133057 
	C1250.488403,836.254395 1250.322021,833.314941 1250.000000,829.429565 
M521.131165,823.263489 
	C521.131165,820.649292 521.131165,818.035095 521.131165,814.950195 
	C531.184998,814.950195 540.911499,814.950195 550.694580,814.950195 
	C550.694580,810.404358 550.694580,806.349548 550.694580,802.327576 
	C534.341858,802.327576 518.296814,802.327576 502.345276,802.327576 
	C502.345276,822.032715 502.345276,841.408386 502.345276,860.634399 
	C519.072876,860.634399 535.453003,860.634399 551.773315,860.634399 
	C551.773315,855.993530 551.773315,851.720093 551.773315,846.971069 
	C541.497925,846.971069 531.439575,846.971069 521.295349,846.971069 
	C521.295349,843.092041 521.295349,839.703430 521.295349,835.836670 
	C530.643433,835.836670 539.705688,835.836670 548.634521,835.836670 
	C548.634521,831.619873 548.634521,827.896667 548.634521,823.892639 
	C539.460083,823.892639 530.649719,823.892639 521.131165,823.263489 
M855.412476,824.000000 
	C848.326111,824.000000 841.239685,824.000000 834.214539,824.000000 
	C834.214539,820.685364 834.214539,818.075928 834.214539,814.987671 
	C844.143982,814.987671 853.872681,814.987671 863.714722,814.987671 
	C863.714722,810.445129 863.714722,806.390320 863.714722,802.306641 
	C847.383240,802.306641 831.338928,802.306641 815.323364,802.306641 
	C815.323364,821.989685 815.323364,841.364258 815.323364,860.659546 
	C832.028137,860.659546 848.407349,860.659546 864.620728,860.659546 
	C864.620728,855.921021 864.620728,851.528809 864.620728,846.845459 
	C854.307312,846.845459 844.372009,846.845459 834.269043,846.845459 
	C834.269043,843.145447 834.269043,839.757385 834.269043,835.888428 
	C843.588928,835.888428 852.651184,835.888428 861.662170,835.888428 
	C861.662170,831.673950 861.662170,827.951904 861.662170,824.000000 
	C859.678162,824.000000 858.031433,824.000000 855.412476,824.000000 
M103.984184,859.261169 
	C103.984184,855.312744 103.984184,851.364380 103.984184,846.945862 
	C93.807930,846.945862 84.082367,846.945862 74.318230,846.945862 
	C74.318230,843.063293 74.318230,839.674438 74.318230,835.807373 
	C83.344757,835.807373 92.072937,835.807373 100.618950,835.807373 
	C100.618950,831.589539 100.618950,827.866394 100.618950,823.843567 
	C91.636925,823.843567 83.033478,823.843567 74.280075,823.843567 
	C74.280075,820.805603 74.280075,818.084106 74.280075,814.880005 
	C83.931702,814.880005 93.324333,814.880005 102.658020,814.880005 
	C102.658020,810.331177 102.658020,806.276245 102.658020,802.361633 
	C86.603035,802.361633 70.892250,802.361633 55.376358,802.361633 
	C55.376358,822.099243 55.376358,841.473389 55.376358,860.992920 
	C71.056908,860.992920 86.361542,861.003845 101.666023,860.959717 
	C102.404549,860.957581 103.141685,860.471008 103.984184,859.261169 
M323.690613,815.000061 
	C332.093292,815.000061 340.495941,815.000061 348.747009,815.000061 
	C348.747009,810.272644 348.747009,806.331726 348.747009,802.273682 
	C332.782928,802.273682 317.072876,802.273682 301.288574,802.273682 
	C301.288574,821.921448 301.288574,841.294250 301.288574,860.692261 
	C317.623016,860.692261 333.666870,860.692261 349.654114,860.692261 
	C349.654114,855.989929 349.654114,851.601440 349.654114,846.737549 
	C339.587311,846.737549 329.860046,846.737549 320.243317,846.737549 
	C320.243317,842.975159 320.243317,839.699036 320.243317,835.948364 
	C329.193420,835.948364 337.919250,835.948364 346.691956,835.948364 
	C346.691956,831.732605 346.691956,828.010620 346.691956,823.814331 
	C337.661682,823.814331 328.930420,823.814331 320.014069,823.814331 
	C320.014069,821.349121 319.724762,819.303101 320.136108,817.409119 
	C320.341553,816.463196 321.827454,815.795349 323.690613,815.000061 
M158.603531,810.114929 
	C157.305481,808.723694 156.176620,807.108276 154.680756,805.979065 
	C147.330917,800.430481 138.785522,800.381226 130.258331,801.416443 
	C124.617668,802.101074 118.881660,803.567322 115.239151,808.479492 
	C108.228050,817.934448 112.308311,830.246460 123.552673,833.980469 
	C129.217148,835.861450 135.068665,837.240295 140.588531,839.460449 
	C142.376953,840.179749 143.380096,842.851501 144.742477,844.630249 
	C142.776810,846.085510 140.993515,848.174011 138.791397,848.808167 
	C136.806229,849.379761 133.742004,849.101868 132.264069,847.868286 
	C129.960510,845.945557 128.596191,842.897522 126.446388,839.761047 
	C121.426132,840.046509 115.760399,840.368591 110.173889,840.686218 
	C109.975876,850.799805 115.997612,857.758606 123.111008,859.889038 
	C130.854111,862.208130 138.898636,862.926819 146.822327,860.904541 
	C156.810318,858.355530 161.722534,852.739929 162.886002,843.493103 
	C164.062912,834.139465 159.506226,828.126709 149.783112,824.962341 
	C144.262939,823.165894 138.586899,821.834656 133.115173,819.911987 
	C131.642654,819.394653 130.660965,817.480469 129.453964,816.207397 
	C131.179825,815.138428 132.789505,813.480225 134.653671,813.112671 
	C139.935471,812.071167 141.941528,816.121338 143.775635,820.000000 
	C146.777451,820.000000 149.615662,820.160645 152.427139,819.955200 
	C155.286636,819.746216 158.119751,819.176514 161.572281,818.676758 
	C160.572617,815.661621 159.768478,813.236206 158.603531,810.114929 
M1433.002441,855.536072 
	C1433.931030,854.200134 1434.865967,852.868408 1435.787231,851.527405 
	C1438.882812,847.020935 1439.951416,835.233521 1434.781982,830.819763 
	C1430.729126,827.359375 1425.409912,825.200623 1420.380249,823.125366 
	C1416.531616,821.537415 1412.190796,821.180420 1408.208130,819.856873 
	C1406.919922,819.428711 1405.477905,817.786011 1405.227173,816.483215 
	C1405.050415,815.564270 1406.908691,813.241638 1407.609375,813.338928 
	C1410.853027,813.789307 1416.149902,814.093140 1416.791016,815.866577 
	C1418.622925,820.934387 1422.062866,820.057922 1425.500977,819.953430 
	C1429.239258,819.839844 1432.966553,819.363159 1436.413574,819.069031 
	C1436.036499,810.166382 1431.348511,804.474792 1423.434937,802.313416 
	C1415.666382,800.191650 1407.586182,800.108521 1399.714355,802.723022 
	C1392.528931,805.109497 1387.123535,810.962036 1387.142944,817.840942 
	C1387.159424,823.726562 1388.396118,829.129456 1397.399536,832.973206 
	C1403.165283,835.434631 1409.408569,836.765930 1415.224243,839.129150 
	C1417.154907,839.913635 1419.079590,842.116638 1419.730957,844.091919 
	C1420.091797,845.186401 1418.157959,847.733643 1416.662598,848.612732 
	C1412.310547,851.171326 1406.053955,848.399902 1403.968506,843.491211 
	C1403.441040,842.249329 1402.513794,840.205627 1401.744385,840.193665 
	C1396.169312,840.106934 1390.587646,840.446594 1384.864380,840.656677 
	C1386.562134,851.230347 1390.648682,858.612671 1400.410156,860.644836 
	C1411.503418,862.954285 1422.503296,862.805603 1433.002441,855.536072 
M1075.931885,851.616150 
	C1070.281128,836.460449 1064.604370,821.314453 1059.003662,806.140320 
	C1058.003540,803.430603 1056.820435,801.650024 1053.385986,801.915588 
	C1048.915527,802.261230 1044.376953,801.755554 1039.913696,802.144897 
	C1038.515259,802.266907 1036.647583,803.827576 1036.054932,805.190796 
	C1033.472656,811.130493 1031.250977,817.228516 1028.953613,823.290100 
	C1024.261597,835.669861 1019.605469,848.063232 1014.727539,860.999878 
	C1018.565247,860.999878 1021.852295,860.999878 1025.139282,860.999878 
	C1034.268921,860.999878 1034.266602,860.999146 1037.029785,852.305786 
	C1037.163086,851.886292 1037.403076,851.500549 1037.549316,851.192200 
	C1044.053833,851.192200 1050.349243,851.192200 1056.431152,851.192200 
	C1057.487915,854.609802 1058.472534,857.794006 1059.406250,860.813843 
	C1066.111450,860.813843 1072.402954,860.813843 1079.133179,860.813843 
	C1078.042847,857.812134 1077.060669,855.107605 1075.931885,851.616150 
M461.464142,835.963867 
	C457.507965,825.362305 453.609528,814.738220 449.501465,804.195862 
	C449.113983,803.201477 447.428314,802.137756 446.311035,802.099060 
	C440.343506,801.892517 434.365082,802.001709 428.481445,802.001709 
	C421.141479,821.604248 413.908264,840.921692 406.392242,860.994324 
	C412.781036,860.994324 418.377716,861.129089 423.956360,860.872070 
	C424.981812,860.824768 426.755920,859.218506 426.790161,858.280823 
	C427.063965,850.780396 431.777161,850.302979 437.524139,850.960388 
	C439.658966,851.204590 441.850708,851.097534 444.006653,850.976196 
	C447.000000,850.807495 448.929718,851.169250 449.177551,855.062561 
	C449.460480,859.507446 452.016357,861.767456 457.072449,861.117859 
	C461.482300,860.551270 466.022522,860.999817 470.909668,860.999817 
	C467.848419,852.686279 464.889709,844.651184 461.464142,835.963867 
M1521.640747,802.000000 
	C1516.762695,801.254700 1514.016357,802.545349 1512.727661,808.104126 
	C1511.242188,814.511658 1508.048096,820.514587 1505.699341,826.732178 
	C1501.437866,838.013000 1497.252808,849.322815 1492.968628,860.800964 
	C1499.855469,860.800964 1506.314087,860.800964 1512.422241,860.800964 
	C1513.508545,857.342468 1514.507202,854.162659 1515.431641,851.219482 
	C1522.198608,851.219482 1528.492920,851.219482 1534.695679,851.219482 
	C1535.675049,854.534424 1536.587891,857.624634 1537.511353,860.750244 
	C1543.927368,860.750244 1550.350464,860.750244 1556.787109,860.750244 
	C1556.858643,860.011658 1557.084839,859.451660 1556.928345,859.035400 
	C1551.178101,843.735107 1545.502075,828.405396 1539.575073,813.173401 
	C1535.204712,801.942139 1535.056030,802.000000 1521.640747,802.000000 
M1229.646851,860.743896 
	C1223.548706,844.075623 1217.023193,827.546082 1211.547363,810.675781 
	C1209.106201,803.155151 1205.166016,800.621277 1197.821533,801.952271 
	C1196.047485,802.273743 1194.139771,802.195862 1192.338745,801.958557 
	C1188.750854,801.485718 1187.122314,803.052856 1185.922607,806.396362 
	C1181.657471,818.283081 1177.035156,830.041321 1172.597778,841.866882 
	C1170.280029,848.044128 1168.065796,854.260315 1165.608643,860.996460 
	C1171.730103,860.996460 1177.207520,861.120239 1182.670654,860.894592 
	C1183.794678,860.848206 1185.480957,859.727905 1185.861694,858.710754 
	C1188.737305,851.030396 1188.655884,850.999878 1196.755249,850.999878 
	C1198.254395,850.999878 1199.788818,851.208191 1201.246338,850.961975 
	C1206.163940,850.131409 1208.767090,852.092041 1208.988403,857.077026 
	C1209.129272,860.251404 1210.793701,861.180176 1213.818115,861.053650 
	C1218.806885,860.844971 1223.810059,860.979736 1229.646851,860.743896 
M653.013672,802.005005 
	C647.682739,802.003479 642.345154,801.858154 637.025696,802.104980 
	C635.750671,802.164185 633.819641,803.250183 633.400574,804.332581 
	C626.507263,822.138428 619.795715,840.014709 613.104492,857.898132 
	C612.797119,858.719666 613.065063,859.756470 613.065063,860.844604 
	C619.441711,860.844604 625.407837,860.844604 631.611816,860.844604 
	C632.588318,857.661804 633.568237,854.468079 634.632263,850.999939 
	C639.700195,850.999939 644.857544,851.192810 649.991821,850.931274 
	C653.339294,850.760803 654.524231,852.031738 655.150330,855.226074 
	C655.554443,857.287720 657.217407,860.564819 658.600037,860.716919 
	C664.282043,861.341797 670.072754,860.978149 676.501648,860.978149 
	C673.130554,851.741272 670.152405,843.204956 666.903564,834.772888 
	C662.683228,823.819275 658.247803,812.948486 653.013672,802.005005 
M966.409973,806.917053 
	C964.947754,808.188110 962.803406,809.179382 962.146484,810.780762 
	C959.839111,816.405945 956.950684,822.121582 956.305359,828.023987 
	C955.297424,837.242981 957.274536,846.103699 963.905579,853.506836 
	C971.242676,861.698242 980.871216,862.504761 990.567078,861.805664 
	C1001.035278,861.050964 1008.986145,855.896851 1012.400024,845.210693 
	C1013.299744,842.394409 1013.537842,840.579285 1009.822571,839.907837 
	C1006.661499,839.336609 1003.591248,838.123474 1000.569397,836.963623 
	C998.030212,835.989075 996.724487,835.723328 995.753784,839.197510 
	C994.682373,843.032227 992.639832,846.803589 987.473938,847.042725 
	C980.358765,847.372131 977.291260,845.534485 976.106323,837.935181 
	C975.323792,832.916504 975.447021,827.523987 976.401123,822.535217 
	C977.280701,817.935791 981.541809,815.870544 986.068909,815.590332 
	C991.618042,815.246887 994.239258,819.217773 996.419067,823.704651 
	C1002.017334,822.411316 1007.556702,821.131592 1013.250549,819.816223 
	C1004.168152,800.705872 983.470276,795.018555 966.409973,806.917053 
M187.999878,827.842590 
	C188.392334,821.238953 191.935165,816.830505 197.804047,815.642700 
	C202.149033,814.763306 206.410721,817.735413 209.116592,823.720642 
	C214.421661,822.437195 219.772964,821.142578 225.129562,819.846619 
	C222.368759,809.289734 217.150986,804.095764 205.048721,801.671387 
	C193.988403,799.455750 183.231613,801.198059 175.414917,810.252747 
	C168.259293,818.541626 167.941818,828.824646 169.577881,839.054260 
	C171.072250,848.398071 175.673233,855.852722 184.962524,859.391357 
	C187.953552,860.530823 191.181305,861.276611 194.365143,861.642944 
	C208.559204,863.276367 222.863876,859.021118 225.910812,841.138550 
	C220.508987,839.406860 215.040741,837.653931 209.181412,835.775574 
	C209.088593,837.070801 209.234390,837.952698 208.942612,838.651855 
	C206.362885,844.832642 203.960159,847.306091 199.044846,847.089111 
	C192.445877,846.797729 190.358353,845.755310 188.693207,839.067444 
	C187.873642,835.775818 188.194901,832.200073 187.999878,827.842590 
M608.079346,829.655762 
	C611.483093,820.623596 614.886841,811.591492 618.501343,802.000122 
	C612.742615,802.000122 607.757080,802.145630 602.785645,801.942871 
	C600.028748,801.830383 598.672852,802.676453 597.938782,805.448364 
	C596.115173,812.333923 594.043579,819.157288 591.925537,825.960205 
	C590.368164,830.962341 588.579956,835.892578 586.564941,841.825439 
	C582.651062,829.148865 579.145630,817.525635 575.398071,805.981018 
	C574.901367,804.450928 573.249878,802.277527 572.001038,802.184998 
	C566.425293,801.771790 560.801514,802.005493 554.276550,802.005493 
	C561.850342,822.103394 569.135254,841.434937 576.459351,860.870239 
	C583.130005,860.870239 589.767700,860.870239 596.512085,860.870239 
	C600.354980,850.697205 604.178528,840.575500 608.079346,829.655762 
M1331.203735,860.888123 
	C1331.469360,859.155701 1331.956055,857.424377 1331.964966,855.690613 
	C1332.030396,842.933411 1332.000488,830.175598 1332.000488,816.936523 
	C1338.201538,816.936523 1343.933594,816.936523 1349.690674,816.936523 
	C1349.690674,811.725037 1349.690674,807.006409 1349.690674,802.314575 
	C1331.345581,802.314575 1313.311401,802.314575 1295.348877,802.314575 
	C1295.348877,807.354675 1295.348877,812.074768 1295.348877,817.272949 
	C1301.420776,817.272949 1307.151611,817.272949 1313.318359,817.272949 
	C1313.318359,832.136292 1313.318359,846.513489 1313.318359,860.985596 
	C1319.274902,860.985596 1324.761963,860.985596 1331.203735,860.888123 
M1479.000000,854.412842 
	C1479.000000,842.009094 1479.000000,829.605286 1479.000000,816.742798 
	C1485.757812,816.742798 1491.825195,816.742798 1497.633911,816.742798 
	C1497.633911,811.531921 1497.633911,806.799561 1497.633911,802.389954 
	C1478.869751,802.389954 1460.490234,802.389954 1442.245361,802.389954 
	C1442.245361,807.389221 1442.245361,811.995789 1442.245361,817.077271 
	C1448.544678,817.077271 1454.610718,817.077271 1461.129150,817.077271 
	C1461.129150,831.941162 1461.129150,846.322571 1461.129150,860.661865 
	C1467.331299,860.661865 1473.052734,860.661865 1479.000000,860.661865 
	C1479.000000,858.678528 1479.000000,857.032104 1479.000000,854.412842 
M872.999817,851.463867 
	C872.999817,854.564331 872.999817,857.664734 872.999817,860.656250 
	C889.018494,860.656250 904.401733,860.656250 919.617065,860.656250 
	C919.617065,855.579163 919.617065,850.851624 919.617065,845.833435 
	C910.298279,845.833435 901.360840,845.833435 891.947632,845.833435 
	C891.947632,831.139587 891.947632,816.752747 891.947632,802.302673 
	C885.404602,802.302673 879.349121,802.302673 872.999817,802.302673 
	C872.999817,818.560791 872.999817,834.518066 872.999817,851.463867 
M406.010529,853.502319 
	C406.010529,851.077271 406.010529,848.652283 406.010529,845.753418 
	C396.286560,845.753418 387.220978,845.753418 377.867065,845.753418 
	C377.867065,830.999207 377.867065,816.729370 377.867065,802.262207 
	C371.497864,802.262207 365.442230,802.262207 359.291443,802.262207 
	C359.291443,821.908081 359.291443,841.290527 359.291443,860.696045 
	C374.973022,860.696045 390.361328,860.696045 406.010529,860.696045 
	C406.010529,858.418213 406.010529,856.442200 406.010529,853.502319 
M947.001709,827.500000 
	C947.001709,819.090088 947.001709,810.680176 947.001709,802.328308 
	C940.343567,802.328308 934.293457,802.328308 928.311279,802.328308 
	C928.311279,822.010193 928.311279,841.362183 928.311279,860.674194 
	C934.676819,860.674194 940.726746,860.674194 947.001709,860.674194 
	C947.001709,849.733337 947.001709,839.116699 947.001709,827.500000 
M1358.000000,854.416199 
	C1358.000000,856.511414 1358.000000,858.606628 1358.000000,860.673950 
	C1364.322144,860.673950 1370.034790,860.673950 1375.696167,860.673950 
	C1375.696167,840.997803 1375.696167,821.649109 1375.696167,802.328186 
	C1369.673462,802.328186 1363.958618,802.328186 1358.000000,802.328186 
	C1358.000000,819.580872 1358.000000,836.506592 1358.000000,854.416199 
z"/>
<path fill="#008CC8" opacity="1.000000" stroke="none" 
	d="
M1135.092651,767.410767 
	C1136.532471,767.607117 1137.972046,767.972839 1139.412109,767.974670 
	C1166.411743,768.008789 1193.412109,767.910156 1220.410400,768.100464 
	C1224.273926,768.127686 1225.946167,766.802734 1226.963623,763.291443 
	C1232.417847,744.467468 1238.556274,725.823425 1243.404297,706.847900 
	C1247.300537,691.597656 1249.696655,675.964050 1252.812622,660.226501 
	C1306.796997,668.273010 1361.168945,676.377197 1415.941406,684.541138 
	C1412.883545,701.253540 1410.346313,717.445618 1406.875488,733.435059 
	C1403.415161,749.377014 1399.019043,765.115845 1395.000000,781.075500 
	C934.426575,781.075500 474.481415,781.075500 14.268406,781.075500 
	C14.268406,813.768433 14.268406,846.160095 14.268406,878.818481 
	C462.078491,878.818481 909.691467,878.818481 1358.030762,878.818481 
	C1352.742188,889.468018 1347.888062,899.719055 1342.624146,909.755188 
	C1325.155762,943.060425 1305.767212,975.193420 1282.554565,1004.849121 
	C1269.551758,1021.461060 1256.354492,1037.961914 1242.445068,1053.810791 
	C1229.557861,1068.494873 1216.037476,1082.690674 1201.993652,1096.271729 
	C1189.729248,1108.132080 1176.714233,1119.297119 1163.368042,1129.938110 
	C1146.175049,1143.646362 1128.271851,1156.461426 1110.801514,1169.826904 
	C1107.958008,1172.002197 1106.288452,1171.435791 1103.761230,1169.383179 
	C1091.968994,1159.804688 1080.000244,1150.442871 1068.073486,1141.030640 
	C1056.285645,1131.728027 1044.472046,1122.458252 1032.670654,1113.172974 
	C1020.737976,1103.784424 1008.793091,1094.411377 996.878418,1084.999878 
	C987.910706,1077.916260 978.982544,1070.782837 969.489502,1063.236572 
	C1046.443359,1021.043762 1110.059692,964.580872 1160.773926,891.980835 
	C1124.539185,891.980835 1089.314697,891.980835 1053.295288,891.726074 
	C1051.670410,891.420776 1050.840454,891.326233 1050.010620,891.326172 
	C952.386414,891.318848 854.762146,891.315613 757.137939,891.345886 
	C755.698486,891.346313 754.259216,891.767395 752.819824,891.992126 
	C730.189880,892.002808 707.559937,892.013550 684.056763,892.005493 
	C681.049194,891.764709 678.915039,891.348938 676.780701,891.348389 
	C574.906311,891.321838 473.031952,891.327942 371.157593,891.364685 
	C369.388672,891.365356 367.619873,891.785339 365.851013,892.009705 
	C244.546448,892.006836 123.241882,892.003967 1.468657,892.000610 
	C1.000000,850.979126 1.000000,809.958191 1.000000,768.468628 
	C67.456947,768.000000 133.913895,768.000000 200.678162,768.000000 
	C200.678162,704.661682 200.678162,641.614197 200.678162,578.074707 
	C156.594315,578.074707 112.543121,578.074707 68.247284,578.074707 
	C68.247284,537.984497 68.247284,498.384094 68.247284,458.293091 
	C112.174583,458.293091 156.226608,458.293091 200.985901,458.293091 
	C200.985901,455.893066 200.985901,453.972351 200.985901,452.051605 
	C200.985901,387.235809 201.025467,322.419922 200.897339,257.604401 
	C200.888748,253.258102 202.164078,250.995483 206.123184,248.820023 
	C220.206146,241.081772 233.942307,232.714096 247.842972,224.641937 
	C261.458954,216.735077 275.121613,208.908722 288.752441,201.027435 
	C302.803253,192.903290 316.834106,184.744598 330.892487,176.633621 
	C332.410034,175.758087 334.052643,175.099274 336.030090,174.151688 
	C336.030090,218.748352 336.030090,262.867584 336.025146,307.908997 
	C335.906799,310.990631 335.695343,313.149994 335.694458,315.309448 
	C335.675262,361.118256 335.679749,406.927063 335.679657,452.735870 
	C335.679626,454.354492 335.679657,455.973145 335.679657,457.832581 
	C342.441132,457.832581 348.720520,457.832581 354.999878,457.832581 
	C359.678802,457.885529 364.357697,457.938446 369.960754,458.028687 
	C431.814362,458.065948 492.743896,458.065948 554.251587,458.065948 
	C554.251587,460.341217 554.251648,462.118256 554.251648,463.895264 
	C554.251648,486.218018 554.233704,508.540802 554.286499,530.863464 
	C554.290588,532.608521 554.789124,534.352478 555.057922,536.096924 
	C555.044556,542.404968 555.031189,548.713074 554.869141,555.855591 
	C554.720459,563.612976 554.720459,570.535828 554.720459,577.940186 
	C551.785095,577.940186 549.828308,577.940186 547.871582,577.940186 
	C485.553650,577.940247 423.235748,577.938171 360.917816,577.949463 
	C358.924988,577.949829 356.932159,578.086548 354.493774,578.091309 
	C351.031952,578.070923 348.015717,578.118958 344.542816,578.090820 
	C341.340210,578.014526 338.594299,578.014526 336.026886,578.014526 
	C336.026886,641.750671 336.026886,704.770386 336.026886,768.145813 
	C337.675964,768.145813 338.980194,768.145813 340.284424,768.145813 
	C408.549713,768.145935 476.814972,768.147522 545.080261,768.135742 
	C546.403992,768.135498 547.727722,767.977905 549.514343,767.944092 
	C564.984680,767.940552 579.992126,767.886841 595.462830,767.910645 
	C597.590454,768.040710 599.254883,768.139221 600.919250,768.139282 
	C777.016541,768.146301 953.113892,768.148315 1129.211182,768.115601 
	C1131.171631,768.115234 1133.132202,767.655823 1135.092651,767.410767 
z"/>
<path fill="#ED3237" opacity="1.000000" stroke="none" 
	d="
M1119.666748,0.999983 
	C1125.706055,5.525918 1131.415771,10.047319 1137.117310,14.578714 
	C1148.438965,23.576662 1160.126709,32.157284 1170.989014,41.679585 
	C1187.586792,56.229969 1204.176636,70.872948 1219.715942,86.523033 
	C1233.811890,100.719414 1246.555664,116.264526 1259.793579,131.304855 
	C1277.180420,151.059036 1292.501221,172.408325 1306.758301,194.453384 
	C1317.535522,211.117599 1327.369385,228.410858 1337.167358,245.682663 
	C1343.836792,257.439575 1350.334961,269.369598 1355.813599,281.708923 
	C1364.675171,301.667542 1373.623413,321.685944 1380.726440,342.302277 
	C1389.652832,368.210327 1397.257690,394.610077 1404.447021,421.065552 
	C1408.355469,435.447510 1410.372803,450.358002 1412.961670,465.079559 
	C1415.185425,477.724579 1417.251465,490.408051 1418.924683,503.135345 
	C1420.037598,511.599579 1420.617554,520.160034 1420.945190,528.696289 
	C1421.777344,550.377136 1422.337646,572.068542 1422.993164,593.756165 
	C1423.048340,595.580872 1423.000366,597.408752 1423.000366,599.996704 
	C1420.289185,599.996704 1417.692627,600.185852 1415.132812,599.959045 
	C1408.945068,599.411011 1402.788086,598.471924 1396.594116,598.046997 
	C1384.749878,597.234436 1372.874390,596.855469 1361.037842,595.955444 
	C1346.168579,594.824951 1331.328003,593.320007 1316.469238,592.044556 
	C1311.217651,591.593750 1305.950684,591.310730 1300.687622,591.006958 
	C1288.833374,590.322693 1276.973877,589.724060 1265.124634,588.965027 
	C1262.897217,588.822327 1260.707153,588.096436 1259.259155,587.796814 
	C1252.312744,367.941956 1151.821899,205.396957 961.778870,96.594498 
	C973.291992,89.574081 985.571838,82.084496 997.853271,74.597626 
	C1016.660034,63.132866 1035.469604,51.672508 1054.274902,40.205536 
	C1070.576050,30.265604 1086.866821,20.308285 1103.176392,10.382230 
	C1108.013672,7.438294 1112.899292,4.574244 1117.881348,1.336801 
	C1118.444458,1.000000 1118.888916,1.000000 1119.666748,0.999983 
z"/>
<path fill="#008CC8" opacity="1.000000" stroke="none" 
	d="
M1650.000000,730.625000 
	C1649.019775,735.678223 1647.947510,740.339417 1647.076050,745.037842 
	C1644.020630,761.509827 1641.637207,778.133484 1637.882568,794.442627 
	C1632.030273,819.863281 1626.208618,845.360779 1618.625977,870.294067 
	C1610.817627,895.969177 1601.214233,921.119385 1591.800171,946.276184 
	C1587.316162,958.258423 1581.685059,969.835999 1576.152832,981.395569 
	C1568.290527,997.823364 1560.507935,1014.319275 1551.825073,1030.315918 
	C1543.147461,1046.303101 1533.970215,1062.083496 1523.993652,1077.286255 
	C1509.108765,1099.968262 1493.641968,1122.287842 1477.806274,1144.318726 
	C1469.423584,1155.980835 1459.733154,1166.702637 1450.642090,1177.856201 
	C1426.963501,1206.907104 1400.698364,1233.553589 1373.776855,1259.526245 
	C1360.054810,1272.764648 1345.334351,1284.974854 1330.947998,1297.515503 
	C1322.668335,1304.733032 1313.964844,1311.473145 1305.838501,1318.853882 
	C1302.516968,1321.870728 1300.119263,1321.973999 1296.777710,1319.346558 
	C1275.483398,1302.604126 1254.112915,1285.958374 1232.781006,1269.263916 
	C1211.189697,1252.366333 1189.599243,1235.467285 1168.043213,1218.524658 
	C1163.673462,1215.089966 1159.458984,1211.457520 1155.220093,1207.955200 
	C1169.562622,1197.741577 1183.876709,1188.004395 1197.669312,1177.577271 
	C1208.108154,1169.685669 1218.219971,1161.283936 1227.877808,1152.453369 
	C1245.844360,1136.025757 1264.009521,1119.733398 1280.895264,1102.230225 
	C1295.912476,1086.663940 1309.832153,1069.948486 1323.273804,1052.977783 
	C1336.395996,1036.410400 1348.955322,1019.308716 1360.553711,1001.648193 
	C1372.130005,984.021423 1383.012573,965.828613 1392.733032,947.122070 
	C1404.100586,925.245911 1413.824951,902.518188 1424.500000,880.273987 
	C1425.115601,878.991028 1427.867920,878.096619 1429.628418,878.092773 
	C1481.457764,877.978455 1533.287231,878.000000 1585.116821,878.000000 
	C1586.910889,878.000000 1588.704956,878.000000 1590.746826,878.000000 
	C1590.746826,845.322815 1590.746826,813.049866 1590.746826,780.157593 
	C1546.329468,780.157593 1501.787964,780.157593 1457.539551,780.157593 
	C1462.671265,750.483826 1467.707153,721.363647 1472.767578,692.101746 
	C1491.515259,695.936829 1510.419800,699.817993 1529.330444,703.668518 
	C1547.954712,707.460571 1566.585449,711.221191 1585.213135,714.996643 
	C1604.157593,718.836365 1623.101929,722.676025 1642.045654,726.518921 
	C1644.422485,727.001099 1646.795410,727.503235 1649.584961,727.998108 
	C1650.000000,728.750000 1650.000000,729.500000 1650.000000,730.625000 
z"/>
<path fill="#008CC8" opacity="1.000000" stroke="none" 
	d="
M665.468628,1392.000000 
	C665.000000,1284.198486 665.000000,1176.396973 665.000000,1068.000000 
	C667.076843,1068.000000 668.846130,1068.000000 670.615356,1068.000000 
	C735.280029,1068.000000 799.951416,1067.461060 864.606262,1068.259033 
	C891.364441,1068.589233 915.248657,1078.199463 932.880981,1099.523560 
	C942.403198,1111.039429 947.439026,1124.462646 949.181458,1139.535278 
	C951.708435,1161.394653 946.110718,1180.649902 932.672424,1197.578735 
	C924.890503,1207.381958 913.943665,1213.217651 902.513611,1217.999878 
	C901.919617,1218.248535 901.315918,1218.475586 900.731262,1218.744385 
	C900.304749,1218.940430 899.902161,1219.188477 899.263855,1219.536011 
	C918.565918,1224.684082 935.951782,1232.813599 948.755066,1248.383545 
	C956.304504,1257.564331 960.598999,1268.484985 962.977966,1280.095337 
	C967.104980,1300.236816 965.402039,1320.092773 956.563049,1338.498413 
	C944.729614,1363.139038 925.787598,1380.135742 898.012024,1384.883179 
	C881.911743,1387.634766 865.601013,1389.155151 849.192505,1391.614746 
	C787.979126,1392.000000 726.958191,1392.000000 665.468628,1392.000000 
M767.126160,1257.787720 
	C767.126160,1279.058472 767.126160,1300.329102 767.126160,1321.993652 
	C784.965332,1321.993652 802.441406,1322.502808 819.865417,1321.772095 
	C828.178650,1321.423340 836.568420,1319.317871 844.617737,1316.963013 
	C864.412903,1311.171631 869.823975,1282.084106 855.431519,1267.878296 
	C846.565369,1259.127075 835.065186,1257.659912 823.775940,1257.211914 
	C805.148132,1256.472656 786.466797,1257.079102 767.126160,1257.787720 
M849.999329,1171.299561 
	C850.007874,1170.633667 849.853333,1169.914795 850.049194,1169.309570 
	C853.632690,1158.237427 846.433044,1142.715820 836.057495,1138.468140 
	C826.420288,1134.522827 816.386292,1133.956055 806.199280,1133.989624 
	C793.264648,1134.032471 780.329773,1134.000000 767.006531,1134.000000 
	C767.006531,1144.464844 767.006531,1154.418457 767.006531,1164.371948 
	C767.006531,1174.470337 767.006531,1184.568726 767.006531,1194.848755 
	C768.365601,1194.917358 769.170776,1195.006592 769.973999,1194.991333 
	C787.055786,1194.667603 804.204590,1195.146729 821.197998,1193.744873 
	C835.142822,1192.594482 845.888489,1188.396851 849.999329,1171.299561 
z"/>
<path fill="#008CC8" opacity="1.000000" stroke="none" 
	d="
M338.468658,1392.000000 
	C338.000000,1284.203857 338.000000,1176.407715 338.000000,1068.305908 
	C427.685730,1068.305908 517.071533,1068.305908 606.729004,1068.305908 
	C606.729004,1091.426147 606.729004,1114.484497 606.729004,1137.853271 
	C550.959900,1137.853271 495.354462,1137.853271 439.374817,1137.853271 
	C439.374817,1154.548096 439.374817,1170.940552 439.374817,1187.826416 
	C490.968506,1187.826416 542.692810,1187.826416 594.707703,1187.826416 
	C594.707703,1210.373657 594.707703,1232.431763 594.707703,1254.808105 
	C542.996521,1254.808105 491.391693,1254.808105 439.393677,1254.808105 
	C439.393677,1275.843628 439.393677,1296.569336 439.393677,1317.791016 
	C496.595276,1317.791016 553.985107,1317.791016 612.000061,1317.791016 
	C612.000061,1342.540771 612.000061,1366.801758 612.000000,1391.531372 
	C520.979126,1392.000000 429.958221,1392.000000 338.468658,1392.000000 
z"/>
<path fill="#008CC8" opacity="1.000000" stroke="none" 
	d="
M12.468657,1392.000000 
	C12.000000,1284.205444 12.000000,1176.410767 12.000000,1068.308228 
	C101.346596,1068.308228 190.397751,1068.308228 279.724609,1068.308228 
	C279.724609,1091.417725 279.724609,1114.474487 279.724609,1137.848633 
	C224.287445,1137.848633 169.017181,1137.848633 113.373970,1137.848633 
	C113.373970,1154.549927 113.373970,1170.942261 113.373970,1187.830811 
	C164.635727,1187.830811 216.025436,1187.830811 267.706635,1187.830811 
	C267.706635,1210.380127 267.706635,1232.437256 267.706635,1254.812256 
	C216.324341,1254.812256 165.053650,1254.812256 113.391945,1254.812256 
	C113.391945,1275.847412 113.391945,1296.572754 113.391945,1317.793457 
	C170.264771,1317.793457 227.320404,1317.793457 285.000000,1317.793457 
	C285.000000,1342.541870 285.000000,1366.802368 285.000000,1391.531372 
	C194.312439,1392.000000 103.624878,1392.000000 12.468657,1392.000000 
z"/>
<path fill="#ED3237" opacity="1.000000" stroke="none" 
	d="
M555.479126,536.072144 
	C554.789124,534.352478 554.290588,532.608521 554.286499,530.863464 
	C554.233704,508.540802 554.251648,486.218018 554.251648,463.895264 
	C554.251648,462.118256 554.251587,460.341217 554.251587,458.065948 
	C492.743896,458.065948 431.814362,458.065948 370.421204,457.972351 
	C386.303619,447.748932 402.611572,437.557068 419.005310,427.505066 
	C439.422150,414.986298 459.907837,402.579834 480.367371,390.130798 
	C498.182068,379.291077 516.007690,368.469116 533.817627,357.621552 
	C550.955322,347.183350 568.074768,336.715332 585.210266,326.273346 
	C603.020935,315.419861 620.864441,304.620087 638.650146,293.725800 
	C654.386108,284.087067 670.021606,274.284027 685.775635,264.675018 
	C703.454407,253.892105 721.247559,243.296921 738.932678,232.524384 
	C754.555908,223.007797 770.066101,213.305817 785.686035,203.783890 
	C803.341064,193.021423 821.083069,182.401718 838.747681,171.654907 
	C848.438049,165.759521 858.104797,159.820587 867.663391,153.715424 
	C871.348511,151.361771 874.842285,150.453873 879.003235,152.390366 
	C894.429138,159.569611 910.160645,166.138702 925.309937,173.854797 
	C947.566406,185.190826 968.770813,198.393707 988.334900,213.969635 
	C1001.777954,224.672211 1015.150208,235.570175 1027.596191,247.389511 
	C1040.666504,259.801727 1053.342773,272.797119 1064.825928,286.667999 
	C1078.140991,302.751801 1090.267944,319.855743 1102.313843,336.937775 
	C1108.077637,345.111298 1112.598999,354.181610 1117.449829,362.974365 
	C1131.229492,387.951660 1142.845459,413.937042 1150.921753,441.285889 
	C1156.726562,460.943054 1161.557251,480.931396 1165.817261,500.985535 
	C1168.516602,513.693604 1169.725098,526.760071 1170.955200,539.727234 
	C1172.274048,553.630859 1172.834717,567.606323 1173.744751,581.837463 
	C1167.837402,581.514771 1163.125000,581.369080 1158.432617,580.980408 
	C1143.066162,579.707642 1127.708862,578.326050 1112.344238,577.031067 
	C1107.434814,576.617310 1102.515991,576.304321 1097.597412,576.012756 
	C1085.921875,575.320496 1074.230469,574.844055 1062.570068,573.956909 
	C1047.526489,572.812439 1032.509155,571.326599 1017.475830,570.042847 
	C1012.400391,569.609436 1007.312927,569.305481 1002.227051,569.009338 
	C990.376343,568.319092 978.515564,567.782166 966.672852,566.977234 
	C948.481995,565.740784 930.302307,564.340210 912.119019,562.993103 
	C898.837402,562.009155 885.559265,560.978638 872.276794,560.006042 
	C853.757874,558.650024 835.234802,557.350586 816.716797,555.982300 
	C808.537842,555.378113 800.365295,554.683899 792.192749,553.996216 
	C776.661255,552.689392 761.133545,551.336914 745.600525,550.048584 
	C740.525391,549.627686 735.440613,549.313599 730.356750,549.009338 
	C718.849854,548.320435 707.327881,547.836365 695.835632,546.959290 
	C680.613159,545.797607 665.415161,544.317932 650.202576,543.023010 
	C645.294556,542.605225 640.375610,542.304810 635.458069,542.010376 
	C623.950195,541.321228 612.435730,540.737183 600.932251,539.983154 
	C586.660156,539.047729 572.395752,537.995667 558.131714,536.942871 
	C557.370056,536.886658 556.643372,536.356812 555.479126,536.072144 
z"/>
<path fill="#ED3237" opacity="1.000000" stroke="none" 
	d="
M1135.061768,767.006897 
	C1133.132202,767.655823 1131.171631,768.115234 1129.211182,768.115601 
	C953.113892,768.148315 777.016541,768.146301 600.919250,768.139282 
	C599.254883,768.139221 597.590454,768.040710 595.307495,767.611877 
	C587.360840,761.566101 579.993469,755.946533 572.714172,750.215210 
	C562.098022,741.856750 551.557861,733.401733 540.961853,725.017578 
	C529.219116,715.726074 517.444092,706.475281 505.693848,697.193298 
	C493.822327,687.815552 481.974091,678.408386 470.096466,669.038391 
	C459.892944,660.989075 449.651245,652.988098 439.447266,644.939331 
	C430.637909,637.990601 421.868683,630.990845 413.062042,624.038574 
	C402.855499,615.981140 392.619232,607.961304 382.411224,599.905701 
	C373.243103,592.670776 364.095825,585.409363 354.939331,578.159668 
	C356.932159,578.086548 358.924988,577.949829 360.917816,577.949463 
	C423.235748,577.938171 485.553650,577.940247 547.871582,577.940186 
	C549.828308,577.940186 551.785095,577.940186 554.720459,577.940186 
	C554.720459,570.535828 554.720459,563.612976 554.921997,556.317749 
	C561.017639,556.963196 566.901550,558.044922 572.807922,558.985413 
	C585.504883,561.007141 598.202393,563.030640 610.920410,564.913269 
	C623.001709,566.701599 635.122070,568.226074 647.201965,570.023560 
	C659.762817,571.892700 672.282227,574.040833 684.844727,575.898621 
	C697.099121,577.710815 709.401367,579.199768 721.652588,581.031799 
	C735.971313,583.172852 750.245972,585.607483 764.561646,587.770325 
	C774.714905,589.304260 784.914734,590.528320 795.074707,592.020264 
	C805.224487,593.510620 815.345459,595.195984 825.488525,596.733154 
	C835.146362,598.196716 844.821655,599.544556 854.479797,601.006104 
	C867.355103,602.954590 880.208984,605.047241 893.094421,606.924866 
	C907.608154,609.039734 922.162537,610.877686 936.669922,613.033630 
	C950.989319,615.161499 965.260315,617.614014 979.574890,619.776123 
	C989.738770,621.311340 999.952515,622.514526 1010.120789,624.022400 
	C1022.187500,625.811768 1034.222778,627.811707 1046.283813,629.640137 
	C1056.267334,631.153625 1066.273804,632.514893 1076.260254,634.009094 
	C1086.727051,635.575256 1097.175049,637.266724 1107.644287,638.815796 
	C1117.471313,640.270020 1127.315063,641.610840 1137.151733,642.999695 
	C1146.664429,644.342834 1156.181885,645.653748 1165.684082,647.067139 
	C1166.749756,647.225647 1167.729858,647.959045 1168.602173,648.358337 
	C1162.765747,689.441711 1151.483521,728.759338 1135.061768,767.006897 
z"/>
<path fill="#ED3237" opacity="1.000000" stroke="none" 
	d="
M355.137878,457.524323 
	C348.720520,457.832581 342.441132,457.832581 335.679657,457.832581 
	C335.679657,455.973145 335.679626,454.354492 335.679657,452.735870 
	C335.679749,406.927063 335.675262,361.118256 335.694458,315.309448 
	C335.695343,313.149994 335.906799,310.990631 336.115601,308.363098 
	C340.675812,302.544800 345.154327,297.205933 349.601807,291.841339 
	C354.294556,286.180908 358.753082,280.310669 363.682983,274.866241 
	C370.580078,267.249359 377.525635,259.633575 384.964966,252.558273 
	C410.104889,228.648529 437.030701,206.931198 466.863464,189.122650 
	C481.454132,180.412811 496.455902,172.295670 511.725494,164.839874 
	C540.266052,150.904099 570.197083,140.516724 601.076294,133.197388 
	C617.310364,129.349380 633.852905,126.692642 650.353455,124.123016 
	C659.261902,122.735710 668.365540,122.339661 677.398254,122.067795 
	C695.982056,121.508469 714.589783,120.781128 733.163696,121.195168 
	C745.394104,121.467804 757.590271,123.546989 769.787598,124.941444 
	C778.068420,125.888145 786.324585,127.050201 796.042725,128.302994 
	C792.986206,130.961899 790.808411,133.114563 788.378296,134.929489 
	C769.129456,149.305405 749.833557,163.618378 730.550110,177.947998 
	C711.673035,191.975708 692.775452,205.975952 673.920349,220.033112 
	C656.100220,233.318695 638.352112,246.700912 620.519409,259.969574 
	C604.262817,272.065552 587.899170,284.017792 571.649109,296.122528 
	C555.235962,308.348755 538.939880,320.732086 522.527100,332.958862 
	C506.279724,345.062439 489.914948,357.008484 473.667511,369.112030 
	C457.255585,381.338196 440.962524,393.723846 424.548248,405.946808 
	C404.763184,420.679871 384.905975,435.316040 365.078186,449.991669 
	C361.815674,452.406464 358.543549,454.808289 355.137878,457.524323 
z"/>
<path fill="#EC3237" opacity="1.000000" stroke="none" 
	d="
M365.993225,892.321533 
	C367.619873,891.785339 369.388672,891.365356 371.157593,891.364685 
	C473.031952,891.327942 574.906311,891.321838 676.780701,891.348389 
	C678.915039,891.348938 681.049194,891.764709 683.593079,892.076660 
	C696.311890,903.548767 708.622620,914.929199 720.929443,926.314087 
	C725.646423,930.677734 730.402405,935.000793 735.055359,939.431885 
	C742.722473,946.733459 750.244019,954.189209 757.963562,961.434326 
	C772.265930,974.857666 786.630554,988.215332 801.039734,1001.524109 
	C810.594116,1010.348816 820.271118,1019.040833 830.880493,1028.690063 
	C819.411255,1031.309326 809.241882,1034.277466 798.861328,1035.860474 
	C780.343506,1038.684082 761.722290,1040.895264 743.095154,1042.907349 
	C734.568054,1043.828369 725.926697,1043.828003 717.332764,1043.960205 
	C706.529358,1044.126587 695.664246,1044.707764 684.928528,1043.839355 
	C667.692749,1042.445435 650.534851,1040.063110 633.355957,1037.999023 
	C612.519043,1035.495239 592.358276,1029.930908 572.336914,1023.935364 
	C543.054932,1015.166565 515.033752,1003.166382 488.237701,988.568726 
	C465.068848,975.947083 442.718323,961.889099 422.409943,944.883362 
	C412.631073,936.694824 402.970642,928.357910 393.441650,919.880127 
	C386.901947,914.061829 380.602844,907.964905 374.352173,901.833496 
	C371.423309,898.960449 368.862885,895.711792 365.993225,892.321533 
z"/>
<path fill="#EB3238" opacity="1.000000" stroke="none" 
	d="
M752.973572,892.313477 
	C754.259216,891.767395 755.698486,891.346313 757.137939,891.345886 
	C854.762146,891.315613 952.386414,891.318848 1050.010620,891.326172 
	C1050.840454,891.326233 1051.670410,891.420776 1052.837646,891.731506 
	C1041.310303,903.982788 1029.998169,916.590637 1017.458130,927.828308 
	C995.551025,947.460388 971.875244,964.928467 946.415771,979.710144 
	C931.813843,988.187927 916.405701,995.267761 901.497925,1003.234253 
	C897.548767,1005.344604 894.703369,1004.612732 891.456482,1002.033325 
	C872.720703,987.149719 853.859314,972.424255 835.107788,957.560364 
	C821.559631,946.821106 808.163574,935.889893 794.612305,925.154663 
	C780.839783,914.244263 766.960083,903.469116 752.973572,892.313477 
z"/>
<path fill="#008CC8" opacity="1.000000" stroke="none" 
	d="
M737.000000,844.997314 
	C737.000000,850.467468 737.000000,855.438416 737.000000,860.992188 
	C731.428955,860.992188 726.149902,861.174072 720.901428,860.853943 
	C719.710510,860.781311 718.371155,859.142639 717.533081,857.926514 
	C711.542419,849.232971 705.663940,840.462158 699.248413,830.974548 
	C699.248413,841.232910 699.248413,850.828491 699.248413,860.706665 
	C692.953979,860.706665 687.230530,860.706665 681.251831,860.706665 
	C681.251831,841.326233 681.251831,822.057556 681.251831,802.034363 
	C686.672485,802.034363 692.258179,801.916443 697.828369,802.156982 
	C698.698547,802.194580 699.611816,803.784546 700.312744,804.790710 
	C706.299255,813.384155 712.241333,822.008606 718.839844,831.554138 
	C718.839844,821.177551 718.839844,811.949646 718.839844,802.362610 
	C724.870789,802.362610 730.600403,802.362610 737.000000,802.362610 
	C737.000000,816.324097 737.000000,830.411133 737.000000,844.997314 
z"/>
<path fill="#008CC8" opacity="1.000000" stroke="none" 
	d="
M1157.060547,828.010986 
	C1155.998413,828.477112 1155.302734,828.894592 1155.229980,828.938293 
	C1157.758301,831.310669 1161.174683,833.388916 1162.867432,836.427368 
	C1164.499390,839.356750 1165.324951,843.435730 1164.789917,846.731140 
	C1163.546387,854.389282 1157.440430,859.961853 1149.022705,859.989868 
	C1136.501221,860.031555 1123.979370,860.000671 1111.224609,860.000671 
	C1111.224609,841.285278 1111.224609,822.031860 1111.224609,802.000000 
	C1113.197144,802.000000 1115.273804,801.950073 1117.347656,802.008423 
	C1128.413330,802.319519 1139.488281,802.471008 1150.539429,803.062012 
	C1156.425171,803.376831 1160.394165,807.297607 1161.669312,812.641479 
	C1162.978394,818.127686 1162.522705,823.883728 1157.060547,828.010986 
M1133.615479,837.000366 
	C1129.459595,837.512329 1129.005127,839.010193 1130.711182,846.992737 
	C1134.126465,846.992737 1137.721069,847.537109 1141.019043,846.783447 
	C1142.923462,846.348389 1145.849854,843.574158 1145.640625,842.287964 
	C1145.321899,840.329163 1142.965698,838.166931 1140.943481,837.182251 
	C1139.196533,836.331726 1136.709106,837.002075 1133.615479,837.000366 
M1142.906006,822.450012 
	C1142.833374,820.710449 1143.248413,817.685181 1142.608032,817.442200 
	C1138.755493,815.980835 1134.661011,815.157837 1130.310669,814.034119 
	C1130.310669,818.635742 1130.310669,821.688293 1130.310669,825.843567 
	C1134.680054,824.837158 1138.532104,823.949890 1142.906006,822.450012 
z"/>
<path fill="#008CC7" opacity="1.000000" stroke="none" 
	d="
M803.276978,818.876953 
	C800.305908,819.315735 797.608032,819.294617 795.171204,820.081787 
	C790.184387,821.692627 786.521606,821.120789 782.838867,816.693970 
	C779.885620,813.143982 771.222656,814.747864 768.161804,818.619873 
	C763.744202,824.208130 763.509155,840.081543 769.491760,845.320679 
	C774.197205,849.441284 783.668518,848.020691 788.269470,844.745850 
	C789.107239,844.149536 788.894043,842.076660 789.264465,840.181885 
	C785.117615,840.181885 781.372925,840.181885 777.316284,840.181885 
	C777.316284,835.677551 777.316284,831.617188 777.316284,827.274780 
	C786.750244,827.274780 796.143555,827.274780 806.003906,827.274780 
	C806.003906,834.879578 806.098022,842.334473 805.911804,849.782288 
	C805.880554,851.034119 804.948486,852.721130 803.905273,853.420227 
	C790.787048,862.211243 776.620361,864.677917 761.670105,859.110840 
	C751.835449,855.448730 747.274475,847.052795 746.197449,837.304932 
	C745.169373,828.000732 745.880371,818.795776 752.457214,810.799988 
	C758.035706,804.018005 765.277161,801.638794 773.312561,801.129456 
	C778.693054,800.788391 784.183167,801.423889 789.567261,802.085754 
	C796.177551,802.898438 803.426819,810.479614 804.512085,817.265198 
	C804.583923,817.714600 803.965637,818.274414 803.276978,818.876953 
z"/>
<path fill="#008CC8" opacity="1.000000" stroke="none" 
	d="
M251.999878,809.075745 
	C251.999878,817.721191 251.856888,825.878540 252.074127,834.026306 
	C252.154831,837.052979 252.386780,840.433655 253.774200,842.987732 
	C256.140503,847.343811 260.828186,847.799377 265.133392,846.778198 
	C269.211029,845.811096 271.087097,842.670166 271.041901,838.267822 
	C270.919464,826.333191 270.999908,814.396362 270.999908,802.232788 
	C277.373993,802.232788 283.309845,802.232788 290.000000,802.232788 
	C290.000000,806.877075 290.069061,811.625305 289.985107,816.370850 
	C289.827057,825.305359 290.542664,834.391235 289.152313,843.137146 
	C286.902100,857.291931 277.659119,860.823059 266.525757,861.790344 
	C260.632751,862.302307 254.381256,861.334656 248.598465,859.844238 
	C240.070160,857.646240 234.463959,850.435791 234.127396,841.559753 
	C233.636597,828.615967 234.001312,815.639771 234.001312,802.339355 
	C239.941376,802.339355 245.663300,802.339355 251.999878,802.339355 
	C251.999878,804.388367 251.999878,806.486084 251.999878,809.075745 
z"/>
<path fill="#008CC8" opacity="1.000000" stroke="none" 
	d="
M1250.000000,829.916321 
	C1250.322021,833.314941 1250.488403,836.254395 1250.997925,839.133057 
	C1252.126221,845.506836 1254.897217,847.499573 1261.550903,846.997681 
	C1266.547485,846.620789 1268.991699,843.486389 1268.996948,837.392273 
	C1269.007080,825.777283 1269.000000,814.162292 1269.000000,802.275513 
	C1275.410034,802.275513 1281.462036,802.275513 1287.016968,802.275513 
	C1287.016968,816.437195 1287.616211,830.474731 1286.796143,844.428833 
	C1286.290039,853.039856 1279.876587,858.169373 1271.836182,860.578369 
	C1263.297241,863.136902 1254.534424,862.581421 1246.245117,859.841919 
	C1236.808228,856.723145 1232.697266,850.266602 1232.182861,841.179810 
	C1231.460083,828.412415 1232.000122,815.573547 1232.000122,802.382812 
	C1237.848755,802.382812 1243.572998,802.382812 1250.000000,802.382812 
	C1250.000000,811.274963 1250.000000,820.352295 1250.000000,829.916321 
z"/>
<path fill="#008CC8" opacity="1.000000" stroke="none" 
	d="
M521.485229,823.578064 
	C530.649719,823.892639 539.460083,823.892639 548.634521,823.892639 
	C548.634521,827.896667 548.634521,831.619873 548.634521,835.836670 
	C539.705688,835.836670 530.643433,835.836670 521.295349,835.836670 
	C521.295349,839.703430 521.295349,843.092041 521.295349,846.971069 
	C531.439575,846.971069 541.497925,846.971069 551.773315,846.971069 
	C551.773315,851.720093 551.773315,855.993530 551.773315,860.634399 
	C535.453003,860.634399 519.072876,860.634399 502.345276,860.634399 
	C502.345276,841.408386 502.345276,822.032715 502.345276,802.327576 
	C518.296814,802.327576 534.341858,802.327576 550.694580,802.327576 
	C550.694580,806.349548 550.694580,810.404358 550.694580,814.950195 
	C540.911499,814.950195 531.184998,814.950195 521.131165,814.950195 
	C521.131165,818.035095 521.131165,820.649292 521.485229,823.578064 
z"/>
<path fill="#008CC8" opacity="1.000000" stroke="none" 
	d="
M855.898621,824.000000 
	C858.031433,824.000000 859.678162,824.000000 861.662170,824.000000 
	C861.662170,827.951904 861.662170,831.673950 861.662170,835.888428 
	C852.651184,835.888428 843.588928,835.888428 834.269043,835.888428 
	C834.269043,839.757385 834.269043,843.145447 834.269043,846.845459 
	C844.372009,846.845459 854.307312,846.845459 864.620728,846.845459 
	C864.620728,851.528809 864.620728,855.921021 864.620728,860.659546 
	C848.407349,860.659546 832.028137,860.659546 815.323364,860.659546 
	C815.323364,841.364258 815.323364,821.989685 815.323364,802.306641 
	C831.338928,802.306641 847.383240,802.306641 863.714722,802.306641 
	C863.714722,806.390320 863.714722,810.445129 863.714722,814.987671 
	C853.872681,814.987671 844.143982,814.987671 834.214539,814.987671 
	C834.214539,818.075928 834.214539,820.685364 834.214539,824.000000 
	C841.239685,824.000000 848.326111,824.000000 855.898621,824.000000 
z"/>
<path fill="#008CC8" opacity="1.000000" stroke="none" 
	d="
M103.931824,859.735596 
	C103.141685,860.471008 102.404549,860.957581 101.666023,860.959717 
	C86.361542,861.003845 71.056908,860.992920 55.376358,860.992920 
	C55.376358,841.473389 55.376358,822.099243 55.376358,802.361633 
	C70.892250,802.361633 86.603035,802.361633 102.658020,802.361633 
	C102.658020,806.276245 102.658020,810.331177 102.658020,814.880005 
	C93.324333,814.880005 83.931702,814.880005 74.280075,814.880005 
	C74.280075,818.084106 74.280075,820.805603 74.280075,823.843567 
	C83.033478,823.843567 91.636925,823.843567 100.618950,823.843567 
	C100.618950,827.866394 100.618950,831.589539 100.618950,835.807373 
	C92.072937,835.807373 83.344757,835.807373 74.318230,835.807373 
	C74.318230,839.674438 74.318230,843.063293 74.318230,846.945862 
	C84.082367,846.945862 93.807930,846.945862 103.984184,846.945862 
	C103.984184,851.364380 103.984184,855.312744 103.931824,859.735596 
z"/>
<path fill="#008CC8" opacity="1.000000" stroke="none" 
	d="
M323.212402,815.000854 
	C321.827454,815.795349 320.341553,816.463196 320.136108,817.409119 
	C319.724762,819.303101 320.014069,821.349121 320.014069,823.814331 
	C328.930420,823.814331 337.661682,823.814331 346.691956,823.814331 
	C346.691956,828.010620 346.691956,831.732605 346.691956,835.948364 
	C337.919250,835.948364 329.193420,835.948364 320.243317,835.948364 
	C320.243317,839.699036 320.243317,842.975159 320.243317,846.737549 
	C329.860046,846.737549 339.587311,846.737549 349.654114,846.737549 
	C349.654114,851.601440 349.654114,855.989929 349.654114,860.692261 
	C333.666870,860.692261 317.623016,860.692261 301.288574,860.692261 
	C301.288574,841.294250 301.288574,821.921448 301.288574,802.273682 
	C317.072876,802.273682 332.782928,802.273682 348.747009,802.273682 
	C348.747009,806.331726 348.747009,810.272644 348.747009,815.000061 
	C340.495941,815.000061 332.093292,815.000061 323.212402,815.000854 
z"/>
<path fill="#008CC7" opacity="1.000000" stroke="none" 
	d="
M158.783936,810.462891 
	C159.768478,813.236206 160.572617,815.661621 161.572281,818.676758 
	C158.119751,819.176514 155.286636,819.746216 152.427139,819.955200 
	C149.615662,820.160645 146.777451,820.000000 143.775635,820.000000 
	C141.941528,816.121338 139.935471,812.071167 134.653671,813.112671 
	C132.789505,813.480225 131.179825,815.138428 129.453964,816.207397 
	C130.660965,817.480469 131.642654,819.394653 133.115173,819.911987 
	C138.586899,821.834656 144.262939,823.165894 149.783112,824.962341 
	C159.506226,828.126709 164.062912,834.139465 162.886002,843.493103 
	C161.722534,852.739929 156.810318,858.355530 146.822327,860.904541 
	C138.898636,862.926819 130.854111,862.208130 123.111008,859.889038 
	C115.997612,857.758606 109.975876,850.799805 110.173889,840.686218 
	C115.760399,840.368591 121.426132,840.046509 126.446388,839.761047 
	C128.596191,842.897522 129.960510,845.945557 132.264069,847.868286 
	C133.742004,849.101868 136.806229,849.379761 138.791397,848.808167 
	C140.993515,848.174011 142.776810,846.085510 144.742462,844.630249 
	C143.380096,842.851501 142.376953,840.179749 140.588531,839.460449 
	C135.068665,837.240295 129.217148,835.861450 123.552673,833.980469 
	C112.308311,830.246460 108.228050,817.934448 115.239151,808.479492 
	C118.881660,803.567322 124.617668,802.101074 130.258331,801.416443 
	C138.785522,800.381226 147.330917,800.430481 154.680756,805.979065 
	C156.176620,807.108276 157.305481,808.723694 158.783936,810.462891 
z"/>
<path fill="#008CC8" opacity="1.000000" stroke="none" 
	d="
M1432.695068,855.754578 
	C1422.503296,862.805603 1411.503418,862.954285 1400.410156,860.644836 
	C1390.648682,858.612671 1386.562134,851.230347 1384.864380,840.656677 
	C1390.587646,840.446594 1396.169312,840.106934 1401.744385,840.193665 
	C1402.513794,840.205627 1403.441040,842.249329 1403.968506,843.491211 
	C1406.053955,848.399902 1412.310547,851.171326 1416.662598,848.612732 
	C1418.157959,847.733643 1420.091797,845.186401 1419.730957,844.091919 
	C1419.079590,842.116638 1417.154907,839.913635 1415.224243,839.129150 
	C1409.408569,836.765930 1403.165283,835.434631 1397.399536,832.973206 
	C1388.396118,829.129456 1387.159424,823.726562 1387.142944,817.840942 
	C1387.123535,810.962036 1392.528931,805.109497 1399.714355,802.723022 
	C1407.586182,800.108521 1415.666382,800.191650 1423.434937,802.313416 
	C1431.348511,804.474792 1436.036499,810.166382 1436.413574,819.069031 
	C1432.966553,819.363159 1429.239258,819.839844 1425.500977,819.953430 
	C1422.062866,820.057922 1418.622925,820.934387 1416.791016,815.866577 
	C1416.149902,814.093140 1410.853027,813.789307 1407.609375,813.338928 
	C1406.908691,813.241638 1405.050415,815.564270 1405.227173,816.483215 
	C1405.477905,817.786011 1406.919922,819.428711 1408.208130,819.856873 
	C1412.190796,821.180420 1416.531616,821.537415 1420.380249,823.125366 
	C1425.409912,825.200623 1430.729126,827.359375 1434.781982,830.819763 
	C1439.951416,835.233521 1438.882812,847.020935 1435.787231,851.527405 
	C1434.865967,852.868408 1433.931030,854.200134 1432.695068,855.754578 
z"/>
<path fill="#008CC8" opacity="1.000000" stroke="none" 
	d="
M1076.005127,852.009644 
	C1077.060669,855.107605 1078.042847,857.812134 1079.133179,860.813843 
	C1072.402954,860.813843 1066.111450,860.813843 1059.406250,860.813843 
	C1058.472534,857.794006 1057.487915,854.609802 1056.431152,851.192200 
	C1050.349243,851.192200 1044.053833,851.192200 1037.549316,851.192200 
	C1037.403076,851.500549 1037.163086,851.886292 1037.029785,852.305786 
	C1034.266602,860.999146 1034.268921,860.999878 1025.139282,860.999878 
	C1021.852295,860.999878 1018.565247,860.999878 1014.727539,860.999878 
	C1019.605469,848.063232 1024.261597,835.669861 1028.953613,823.290100 
	C1031.250977,817.228516 1033.472656,811.130493 1036.054932,805.190796 
	C1036.647583,803.827576 1038.515259,802.266907 1039.913696,802.144897 
	C1044.376953,801.755554 1048.915527,802.261230 1053.385986,801.915588 
	C1056.820435,801.650024 1058.003540,803.430603 1059.003662,806.140320 
	C1064.604370,821.314453 1070.281128,836.460449 1076.005127,852.009644 
M1047.083984,821.679321 
	C1046.941406,821.594116 1046.807129,821.483154 1046.653076,821.432861 
	C1046.555542,821.401123 1046.341431,821.433594 1046.326782,821.481934 
	C1044.681763,826.903381 1043.050903,832.329041 1041.412354,837.776794 
	C1045.204590,837.776794 1048.494263,837.776794 1052.372314,837.776794 
	C1050.731079,832.339966 1049.198730,827.263977 1047.083984,821.679321 
z"/>
<path fill="#008CC7" opacity="1.000000" stroke="none" 
	d="
M461.697571,836.289978 
	C464.889709,844.651184 467.848419,852.686279 470.909668,860.999817 
	C466.022522,860.999817 461.482300,860.551270 457.072449,861.117859 
	C452.016357,861.767456 449.460480,859.507446 449.177551,855.062561 
	C448.929718,851.169250 447.000000,850.807495 444.006653,850.976196 
	C441.850708,851.097534 439.658966,851.204590 437.524139,850.960388 
	C431.777161,850.302979 427.063965,850.780396 426.790161,858.280823 
	C426.755920,859.218506 424.981812,860.824768 423.956360,860.872070 
	C418.377716,861.129089 412.781036,860.994324 406.392242,860.994324 
	C413.908264,840.921692 421.141479,821.604248 428.481445,802.001709 
	C434.365082,802.001709 440.343506,801.892517 446.311035,802.099060 
	C447.428314,802.137756 449.113983,803.201477 449.501465,804.195862 
	C453.609528,814.738220 457.507965,825.362305 461.697571,836.289978 
M440.080383,825.383911 
	C439.604370,823.706116 439.128387,822.028259 438.469360,819.705261 
	C436.535278,826.093994 434.793488,831.847656 432.990936,837.801880 
	C436.878174,837.801880 440.302094,837.801880 443.957306,837.801880 
	C442.770844,833.722473 441.654663,829.884888 440.080383,825.383911 
z"/>
<path fill="#008CC8" opacity="1.000000" stroke="none" 
	d="
M1522.120117,802.000000 
	C1535.056030,802.000000 1535.204712,801.942139 1539.575073,813.173401 
	C1545.502075,828.405396 1551.178101,843.735107 1556.928345,859.035400 
	C1557.084839,859.451660 1556.858643,860.011658 1556.787109,860.750244 
	C1550.350464,860.750244 1543.927368,860.750244 1537.511353,860.750244 
	C1536.587891,857.624634 1535.675049,854.534424 1534.695679,851.219482 
	C1528.492920,851.219482 1522.198608,851.219482 1515.431641,851.219482 
	C1514.507202,854.162659 1513.508545,857.342468 1512.422241,860.800964 
	C1506.314087,860.800964 1499.855469,860.800964 1492.968628,860.800964 
	C1497.252808,849.322815 1501.437866,838.013000 1505.699341,826.732178 
	C1508.048096,820.514587 1511.242188,814.511658 1512.727661,808.104126 
	C1514.016357,802.545349 1516.762695,801.254700 1522.120117,802.000000 
M1520.396118,834.110718 
	C1520.310669,835.320801 1520.225342,836.530884 1520.130371,837.875916 
	C1523.915039,837.875916 1527.205688,837.875916 1530.655273,837.875916 
	C1528.874023,832.142761 1527.137695,826.553772 1525.401245,820.964783 
	C1525.088989,820.988403 1524.776733,821.012085 1524.464478,821.035706 
	C1523.277710,825.165283 1522.091064,829.294800 1520.396118,834.110718 
z"/>
<path fill="#008CC8" opacity="1.000000" stroke="none" 
	d="
M1229.227051,860.856812 
	C1223.810059,860.979736 1218.806885,860.844971 1213.818115,861.053650 
	C1210.793701,861.180176 1209.129272,860.251404 1208.988403,857.077026 
	C1208.767090,852.092041 1206.163940,850.131409 1201.246338,850.961975 
	C1199.788818,851.208191 1198.254395,850.999878 1196.755249,850.999878 
	C1188.655884,850.999878 1188.737305,851.030396 1185.861694,858.710754 
	C1185.480957,859.727905 1183.794678,860.848206 1182.670654,860.894592 
	C1177.207520,861.120239 1171.730103,860.996460 1165.608643,860.996460 
	C1168.065796,854.260315 1170.280029,848.044128 1172.597778,841.866882 
	C1177.035156,830.041321 1181.657471,818.283081 1185.922607,806.396362 
	C1187.122314,803.052856 1188.750854,801.485718 1192.338745,801.958557 
	C1194.139771,802.195862 1196.047485,802.273743 1197.821533,801.952271 
	C1205.166016,800.621277 1209.106201,803.155151 1211.547363,810.675781 
	C1217.023193,827.546082 1223.548706,844.075623 1229.227051,860.856812 
M1194.874268,837.999756 
	C1197.557617,837.999756 1200.241089,837.999756 1203.405273,837.999756 
	C1201.324463,831.488586 1199.540405,825.905945 1197.588135,819.797058 
	C1195.838501,825.510376 1194.225708,830.556519 1192.818115,835.659241 
	C1192.646240,836.282043 1193.577393,837.209106 1194.874268,837.999756 
z"/>
<path fill="#008CC8" opacity="1.000000" stroke="none" 
	d="
M653.459290,802.023560 
	C658.247803,812.948486 662.683228,823.819275 666.903564,834.772888 
	C670.152405,843.204956 673.130554,851.741272 676.501648,860.978149 
	C670.072754,860.978149 664.282043,861.341797 658.600037,860.716919 
	C657.217407,860.564819 655.554443,857.287720 655.150330,855.226074 
	C654.524231,852.031738 653.339294,850.760803 649.991821,850.931274 
	C644.857544,851.192810 639.700195,850.999939 634.632263,850.999939 
	C633.568237,854.468079 632.588318,857.661804 631.611816,860.844604 
	C625.407837,860.844604 619.441711,860.844604 613.065063,860.844604 
	C613.065063,859.756470 612.797119,858.719666 613.104492,857.898132 
	C619.795715,840.014709 626.507263,822.138428 633.400574,804.332581 
	C633.819641,803.250183 635.750671,802.164185 637.025696,802.104980 
	C642.345154,801.858154 647.682739,802.003479 653.459290,802.023560 
M648.007202,832.380676 
	C646.896240,828.708801 645.785217,825.036926 644.674255,821.365051 
	C644.335571,821.370117 643.996826,821.375183 643.658142,821.380310 
	C642.040283,826.705566 640.422363,832.030823 638.688538,837.737915 
	C642.608765,837.737915 646.033875,837.737915 649.647095,837.737915 
	C649.117371,836.219788 648.590027,834.708313 648.007202,832.380676 
z"/>
<path fill="#008CC7" opacity="1.000000" stroke="none" 
	d="
M966.707703,806.692505 
	C983.470276,795.018555 1004.168152,800.705872 1013.250549,819.816223 
	C1007.556702,821.131592 1002.017334,822.411316 996.419067,823.704651 
	C994.239258,819.217773 991.618042,815.246887 986.068909,815.590332 
	C981.541809,815.870544 977.280701,817.935791 976.401123,822.535217 
	C975.447021,827.523987 975.323792,832.916504 976.106323,837.935181 
	C977.291260,845.534485 980.358765,847.372131 987.473938,847.042725 
	C992.639832,846.803589 994.682373,843.032227 995.753784,839.197510 
	C996.724487,835.723328 998.030212,835.989075 1000.569397,836.963623 
	C1003.591248,838.123474 1006.661499,839.336609 1009.822571,839.907837 
	C1013.537842,840.579285 1013.299744,842.394409 1012.400024,845.210693 
	C1008.986145,855.896851 1001.035278,861.050964 990.567078,861.805664 
	C980.871216,862.504761 971.242676,861.698242 963.905579,853.506836 
	C957.274536,846.103699 955.297424,837.242981 956.305359,828.023987 
	C956.950684,822.121582 959.839111,816.405945 962.146484,810.780762 
	C962.803406,809.179382 964.947754,808.188110 966.707703,806.692505 
z"/>
<path fill="#008CC7" opacity="1.000000" stroke="none" 
	d="
M187.999893,828.297729 
	C188.194901,832.200073 187.873642,835.775818 188.693207,839.067444 
	C190.358353,845.755310 192.445877,846.797729 199.044846,847.089111 
	C203.960159,847.306091 206.362885,844.832642 208.942612,838.651855 
	C209.234390,837.952698 209.088593,837.070801 209.181412,835.775574 
	C215.040741,837.653931 220.508987,839.406860 225.910812,841.138550 
	C222.863876,859.021118 208.559204,863.276367 194.365143,861.642944 
	C191.181305,861.276611 187.953552,860.530823 184.962524,859.391357 
	C175.673233,855.852722 171.072250,848.398071 169.577881,839.054260 
	C167.941818,828.824646 168.259293,818.541626 175.414917,810.252747 
	C183.231613,801.198059 193.988403,799.455750 205.048721,801.671387 
	C217.150986,804.095764 222.368759,809.289734 225.129562,819.846619 
	C219.772964,821.142578 214.421661,822.437195 209.116592,823.720642 
	C206.410721,817.735413 202.149033,814.763306 197.804047,815.642700 
	C191.935165,816.830505 188.392334,821.238953 187.999893,828.297729 
z"/>
<path fill="#008CC8" opacity="1.000000" stroke="none" 
	d="
M608.040710,830.054810 
	C604.178528,840.575500 600.354980,850.697205 596.512085,860.870239 
	C589.767700,860.870239 583.130005,860.870239 576.459351,860.870239 
	C569.135254,841.434937 561.850342,822.103394 554.276550,802.005493 
	C560.801514,802.005493 566.425293,801.771790 572.001038,802.184998 
	C573.249878,802.277527 574.901367,804.450928 575.398071,805.981018 
	C579.145630,817.525635 582.651062,829.148865 586.564941,841.825439 
	C588.579956,835.892578 590.368164,830.962341 591.925537,825.960205 
	C594.043579,819.157288 596.115173,812.333923 597.938782,805.448364 
	C598.672852,802.676453 600.028748,801.830383 602.785645,801.942871 
	C607.757080,802.145630 612.742615,802.000122 618.501343,802.000122 
	C614.886841,811.591492 611.483093,820.623596 608.040710,830.054810 
z"/>
<path fill="#008CC8" opacity="1.000000" stroke="none" 
	d="
M1330.726318,860.936890 
	C1324.761963,860.985596 1319.274902,860.985596 1313.318359,860.985596 
	C1313.318359,846.513489 1313.318359,832.136292 1313.318359,817.272949 
	C1307.151611,817.272949 1301.420776,817.272949 1295.348877,817.272949 
	C1295.348877,812.074768 1295.348877,807.354675 1295.348877,802.314575 
	C1313.311401,802.314575 1331.345581,802.314575 1349.690674,802.314575 
	C1349.690674,807.006409 1349.690674,811.725037 1349.690674,816.936523 
	C1343.933594,816.936523 1338.201538,816.936523 1332.000488,816.936523 
	C1332.000488,830.175598 1332.030396,842.933411 1331.964966,855.690613 
	C1331.956055,857.424377 1331.469360,859.155701 1330.726318,860.936890 
z"/>
<path fill="#008CC8" opacity="1.000000" stroke="none" 
	d="
M1479.000000,854.899292 
	C1479.000000,857.032104 1479.000000,858.678528 1479.000000,860.661865 
	C1473.052734,860.661865 1467.331299,860.661865 1461.129150,860.661865 
	C1461.129150,846.322571 1461.129150,831.941162 1461.129150,817.077271 
	C1454.610718,817.077271 1448.544678,817.077271 1442.245361,817.077271 
	C1442.245361,811.995789 1442.245361,807.389221 1442.245361,802.389954 
	C1460.490234,802.389954 1478.869751,802.389954 1497.633911,802.389954 
	C1497.633911,806.799561 1497.633911,811.531921 1497.633911,816.742798 
	C1491.825195,816.742798 1485.757812,816.742798 1479.000000,816.742798 
	C1479.000000,829.605286 1479.000000,842.009094 1479.000000,854.899292 
z"/>
<path fill="#008CC8" opacity="1.000000" stroke="none" 
	d="
M872.999817,850.969604 
	C872.999817,834.518066 872.999817,818.560791 872.999817,802.302673 
	C879.349121,802.302673 885.404602,802.302673 891.947632,802.302673 
	C891.947632,816.752747 891.947632,831.139587 891.947632,845.833435 
	C901.360840,845.833435 910.298279,845.833435 919.617065,845.833435 
	C919.617065,850.851624 919.617065,855.579163 919.617065,860.656250 
	C904.401733,860.656250 889.018494,860.656250 872.999817,860.656250 
	C872.999817,857.664734 872.999817,854.564331 872.999817,850.969604 
z"/>
<path fill="#008CC8" opacity="1.000000" stroke="none" 
	d="
M406.010529,853.984253 
	C406.010529,856.442200 406.010529,858.418213 406.010529,860.696045 
	C390.361328,860.696045 374.973022,860.696045 359.291443,860.696045 
	C359.291443,841.290527 359.291443,821.908081 359.291443,802.262207 
	C365.442230,802.262207 371.497864,802.262207 377.867065,802.262207 
	C377.867065,816.729370 377.867065,830.999207 377.867065,845.753418 
	C387.220978,845.753418 396.286560,845.753418 406.010529,845.753418 
	C406.010529,848.652283 406.010529,851.077271 406.010529,853.984253 
z"/>
<path fill="#008CC8" opacity="1.000000" stroke="none" 
	d="
M947.001709,828.000000 
	C947.001709,839.116699 947.001709,849.733337 947.001709,860.674194 
	C940.726746,860.674194 934.676819,860.674194 928.311279,860.674194 
	C928.311279,841.362183 928.311279,822.010193 928.311279,802.328308 
	C934.293457,802.328308 940.343567,802.328308 947.001709,802.328308 
	C947.001709,810.680176 947.001709,819.090088 947.001709,828.000000 
z"/>
<path fill="#008CC8" opacity="1.000000" stroke="none" 
	d="
M1358.000000,853.924255 
	C1358.000000,836.506592 1358.000000,819.580872 1358.000000,802.328186 
	C1363.958618,802.328186 1369.673462,802.328186 1375.696167,802.328186 
	C1375.696167,821.649109 1375.696167,840.997803 1375.696167,860.673950 
	C1370.034790,860.673950 1364.322144,860.673950 1358.000000,860.673950 
	C1358.000000,858.606628 1358.000000,856.511414 1358.000000,853.924255 
z"/>
<path fill="#ED3237" opacity="1.000000" stroke="none" 
	d="
M549.051453,767.893799 
	C547.727722,767.977905 546.403992,768.135498 545.080261,768.135742 
	C476.814972,768.147522 408.549713,768.145935 340.284424,768.145813 
	C338.980194,768.145813 337.675964,768.145813 336.026886,768.145813 
	C336.026886,704.770386 336.026886,641.750671 336.026886,578.014526 
	C338.594299,578.014526 341.340210,578.014526 344.680786,578.399109 
	C346.344635,579.485535 347.539307,580.052185 348.463745,580.910034 
	C358.246246,589.988525 367.967529,599.132935 377.742371,608.219727 
	C386.666229,616.515442 395.649719,624.747009 404.581268,633.034485 
	C418.585327,646.028687 432.551056,659.064209 446.565491,672.047119 
	C455.259644,680.101379 464.070740,688.029968 472.728699,696.122620 
	C488.750519,711.098450 504.700928,726.150696 520.676208,741.176392 
	C530.139404,750.077148 539.593323,758.987610 549.051453,767.893799 
z"/>
<path fill="#FFFFFF" opacity="1.000000" stroke="none" 
	d="
M549.514343,767.944031 
	C539.593323,758.987610 530.139404,750.077148 520.676208,741.176392 
	C504.700928,726.150696 488.750519,711.098450 472.728699,696.122620 
	C464.070740,688.029968 455.259644,680.101379 446.565491,672.047119 
	C432.551056,659.064209 418.585327,646.028687 404.581268,633.034485 
	C395.649719,624.747009 386.666229,616.515442 377.742371,608.219727 
	C367.967529,599.132935 358.246246,589.988525 348.463745,580.910034 
	C347.539307,580.052185 346.344635,579.485535 345.137451,578.475342 
	C348.015717,578.118958 351.031952,578.070923 354.493774,578.091309 
	C364.095825,585.409363 373.243103,592.670776 382.411224,599.905701 
	C392.619232,607.961304 402.855499,615.981140 413.062042,624.038574 
	C421.868683,630.990845 430.637909,637.990601 439.447266,644.939331 
	C449.651245,652.988098 459.892944,660.989075 470.096466,669.038391 
	C481.974091,678.408386 493.822327,687.815552 505.693848,697.193298 
	C517.444092,706.475281 529.219116,715.726074 540.961853,725.017578 
	C551.557861,733.401733 562.098022,741.856750 572.714172,750.215210 
	C579.993469,755.946533 587.360840,761.566101 594.844238,767.534363 
	C579.992126,767.886841 564.984680,767.940552 549.514343,767.944031 
z"/>
<path fill="#FFFFFF" opacity="1.000000" stroke="none" 
	d="
M767.467102,1257.453125 
	C786.466797,1257.079102 805.148132,1256.472656 823.775940,1257.211914 
	C835.065186,1257.659912 846.565369,1259.127075 855.431519,1267.878296 
	C869.823975,1282.084106 864.412903,1311.171631 844.617737,1316.963013 
	C836.568420,1319.317871 828.178650,1321.423340 819.865417,1321.772095 
	C802.441406,1322.502808 784.965332,1321.993652 767.126160,1321.993652 
	C767.126160,1300.329102 767.126160,1279.058472 767.467102,1257.453125 
z"/>
<path fill="#FFFFFF" opacity="1.000000" stroke="none" 
	d="
M849.996643,1171.730225 
	C845.888489,1188.396851 835.142822,1192.594482 821.197998,1193.744873 
	C804.204590,1195.146729 787.055786,1194.667603 769.973999,1194.991333 
	C769.170776,1195.006592 768.365601,1194.917358 767.006531,1194.848755 
	C767.006531,1184.568726 767.006531,1174.470337 767.006531,1164.371948 
	C767.006531,1154.418457 767.006531,1144.464844 767.006531,1134.000000 
	C780.329773,1134.000000 793.264648,1134.032471 806.199280,1133.989624 
	C816.386292,1133.956055 826.420288,1134.522827 836.057495,1138.468140 
	C846.433044,1142.715820 853.632690,1158.237427 850.049194,1169.309570 
	C849.853333,1169.914795 850.007874,1170.633667 849.996643,1171.730225 
z"/>
<path fill="#FFFFFF" opacity="1.000000" stroke="none" 
	d="
M1134.082275,837.000244 
	C1136.709106,837.002075 1139.196533,836.331726 1140.943481,837.182251 
	C1142.965698,838.166931 1145.321899,840.329163 1145.640625,842.287964 
	C1145.849854,843.574158 1142.923462,846.348389 1141.019043,846.783447 
	C1137.721069,847.537109 1134.126465,846.992737 1130.711182,846.992737 
	C1129.005127,839.010193 1129.459595,837.512329 1134.082275,837.000244 
z"/>
<path fill="#FFFFFF" opacity="1.000000" stroke="none" 
	d="
M1142.645020,822.756348 
	C1138.532104,823.949890 1134.680054,824.837158 1130.310669,825.843567 
	C1130.310669,821.688293 1130.310669,818.635742 1130.310669,814.034119 
	C1134.661011,815.157837 1138.755493,815.980835 1142.608032,817.442200 
	C1143.248413,817.685181 1142.833374,820.710449 1142.645020,822.756348 
z"/>
<path fill="#FFFFFF" opacity="1.000000" stroke="none" 
	d="
M1047.375244,821.933655 
	C1049.198730,827.263977 1050.731079,832.339966 1052.372314,837.776794 
	C1048.494263,837.776794 1045.204590,837.776794 1041.412354,837.776794 
	C1043.050903,832.329041 1044.681763,826.903381 1046.326782,821.481934 
	C1046.341431,821.433594 1046.555542,821.401123 1046.653076,821.432861 
	C1046.807129,821.483154 1046.941406,821.594116 1047.375244,821.933655 
z"/>
<path fill="#FFFFFF" opacity="1.000000" stroke="none" 
	d="
M440.309448,825.715576 
	C441.654663,829.884888 442.770844,833.722473 443.957306,837.801880 
	C440.302094,837.801880 436.878174,837.801880 432.990936,837.801880 
	C434.793488,831.847656 436.535278,826.093994 438.469360,819.705261 
	C439.128387,822.028259 439.604370,823.706116 440.309448,825.715576 
z"/>
<path fill="#FFFFFF" opacity="1.000000" stroke="none" 
	d="
M1520.650146,833.767578 
	C1522.091064,829.294800 1523.277710,825.165283 1524.464478,821.035706 
	C1524.776733,821.012085 1525.088989,820.988403 1525.401245,820.964783 
	C1527.137695,826.553772 1528.874023,832.142761 1530.655273,837.875916 
	C1527.205688,837.875916 1523.915039,837.875916 1520.130371,837.875916 
	C1520.225342,836.530884 1520.310669,835.320801 1520.650146,833.767578 
z"/>
<path fill="#FFFFFF" opacity="1.000000" stroke="none" 
	d="
M1194.435791,837.997437 
	C1193.577393,837.209106 1192.646240,836.282043 1192.818115,835.659241 
	C1194.225708,830.556519 1195.838501,825.510376 1197.588135,819.797058 
	C1199.540405,825.905945 1201.324463,831.488586 1203.405273,837.999756 
	C1200.241089,837.999756 1197.557617,837.999756 1194.435791,837.997437 
z"/>
<path fill="#FFFFFF" opacity="1.000000" stroke="none" 
	d="
M648.034912,832.788757 
	C648.590027,834.708313 649.117371,836.219788 649.647095,837.737915 
	C646.033875,837.737915 642.608765,837.737915 638.688538,837.737915 
	C640.422363,832.030823 642.040283,826.705566 643.658142,821.380310 
	C643.996826,821.375183 644.335571,821.370117 644.674255,821.365051 
	C645.785217,825.036926 646.896240,828.708801 648.034912,832.788757 
z"/>
</svg>